<svg width="23" height="27" viewBox="0 0 23 27" fill="none" xmlns="http://www.w3.org/2000/svg">
<path d="M11.5286 4.85278C11.6706 6.19563 11.5439 7.79462 10.9747 9.08917L11.077 9.14653C11.1135 9.14597 11.151 9.14653 11.1877 9.14653C14.8926 9.14653 17.8936 12.0325 17.8936 15.5953C17.8936 16.4705 17.711 17.3087 17.3823 18.07L20.7991 21.0936C21.7955 19.4853 22.3669 17.6022 22.3669 15.5953C22.3669 9.769 17.5432 5.02799 11.5286 4.85278ZM6.91884 5.65581C2.85991 7.26968 2.72664e-07 11.1111 0 15.5953C0 19.8328 2.55678 23.4954 6.26275 25.2481V19.9792C5.83278 19.5325 5.46647 19.0297 5.18061 18.4797C4.42165 17.1898 3.92437 15.1681 3.92806 13.0306C3.93271 10.3408 4.65412 7.51007 6.91884 5.65581Z" fill="#343133"/>
<path fill-rule="evenodd" clip-rule="evenodd" d="M6.94433 18.8866C4.67472 16.4185 4.5646 13.661 5.19357 12.0819C6.37891 9.10609 10.675 7.74591 11.3215 3.29871C11.4923 14.3479 5.81475 10.5906 6.94433 18.8866Z" fill="#127CC1"/>
<path fill-rule="evenodd" clip-rule="evenodd" d="M4.55124 12.0463C4.18828 5.20297 10.0801 6.05675 10.8434 0.207397C11.8424 7.24601 5.31923 8.00742 4.55124 12.0463Z" fill="#36C0EF"/>
<path d="M8.38966 20.8719C8.3897 20.9624 8.37117 21.0521 8.33514 21.1358C8.29911 21.2195 8.24628 21.2955 8.17967 21.3596C8.11306 21.4236 8.03397 21.4744 7.94693 21.5091C7.85989 21.5438 7.76659 21.5616 7.67237 21.5616C7.57815 21.5616 7.48486 21.5438 7.39781 21.5091C7.31077 21.4744 7.23168 21.4236 7.16507 21.3596C7.09846 21.2955 7.04563 21.2195 7.0096 21.1358C6.97357 21.0521 6.95504 20.9624 6.95508 20.8719C6.95504 20.7813 6.97357 20.6916 7.0096 20.6079C7.04563 20.5243 7.09846 20.4482 7.16507 20.3842C7.23168 20.3201 7.31077 20.2693 7.39781 20.2346C7.48486 20.2 7.57815 20.1821 7.67237 20.1821C7.76659 20.1821 7.85989 20.2 7.94693 20.2346C8.03397 20.2693 8.11306 20.3201 8.17967 20.3842C8.24628 20.4482 8.29911 20.5243 8.33514 20.6079C8.37117 20.6916 8.3897 20.7813 8.38966 20.8719Z" fill="#127CC1"/>
<path d="M8.38966 22.6219C8.3897 22.7124 8.37117 22.8021 8.33514 22.8858C8.29911 22.9695 8.24628 23.0455 8.17967 23.1096C8.11306 23.1736 8.03397 23.2244 7.94693 23.2591C7.85989 23.2938 7.76659 23.3116 7.67237 23.3116C7.57815 23.3116 7.48486 23.2938 7.39781 23.2591C7.31077 23.2244 7.23168 23.1736 7.16507 23.1096C7.09846 23.0455 7.04563 22.9695 7.0096 22.8858C6.97357 22.8021 6.95504 22.7124 6.95508 22.6219C6.95504 22.5313 6.97357 22.4416 7.0096 22.3579C7.04563 22.2743 7.09846 22.1982 7.16507 22.1342C7.23168 22.0701 7.31077 22.0193 7.39781 21.9846C7.48486 21.95 7.57815 21.9321 7.67237 21.9321C7.76659 21.9321 7.85989 21.95 7.94693 21.9846C8.03397 22.0193 8.11306 22.0701 8.17967 22.1342C8.24628 22.1982 8.29911 22.2743 8.33514 22.3579C8.37117 22.4416 8.3897 22.5313 8.38966 22.6219Z" fill="#127CC1"/>
<path d="M8.38966 24.372C8.3897 24.4625 8.37117 24.5522 8.33514 24.6359C8.29911 24.7196 8.24628 24.7956 8.17967 24.8597C8.11306 24.9237 8.03397 24.9745 7.94693 25.0092C7.85989 25.0439 7.76659 25.0617 7.67237 25.0617C7.57815 25.0617 7.48486 25.0439 7.39781 25.0092C7.31077 24.9745 7.23168 24.9237 7.16507 24.8597C7.09846 24.7956 7.04563 24.7196 7.0096 24.6359C6.97357 24.5522 6.95504 24.4625 6.95508 24.372C6.95504 24.2814 6.97357 24.1917 7.0096 24.1081C7.04563 24.0244 7.09846 23.9483 7.16507 23.8843C7.23168 23.8202 7.31077 23.7694 7.39781 23.7348C7.48486 23.7001 7.57815 23.6823 7.67237 23.6823C7.76659 23.6823 7.85989 23.7001 7.94693 23.7348C8.03397 23.7694 8.11306 23.8202 8.17967 23.8843C8.24628 23.9483 8.29911 24.0244 8.33514 24.1081C8.37117 24.1917 8.3897 24.2814 8.38966 24.372Z" fill="#127CC1"/>
<path d="M10.21 20.8719C10.21 20.9624 10.1915 21.0521 10.1555 21.1358C10.1194 21.2195 10.0666 21.2955 9.99998 21.3596C9.93337 21.4236 9.85429 21.4744 9.76724 21.5091C9.6802 21.5438 9.5869 21.5616 9.49268 21.5616C9.39846 21.5616 9.30517 21.5438 9.21812 21.5091C9.13108 21.4744 9.05199 21.4236 8.98538 21.3596C8.91877 21.2955 8.86595 21.2195 8.82991 21.1358C8.79388 21.0521 8.77535 20.9624 8.77539 20.8719C8.77535 20.7813 8.79388 20.6916 8.82991 20.6079C8.86595 20.5243 8.91877 20.4482 8.98538 20.3842C9.05199 20.3201 9.13108 20.2693 9.21812 20.2346C9.30517 20.2 9.39846 20.1821 9.49268 20.1821C9.5869 20.1821 9.6802 20.2 9.76724 20.2346C9.85429 20.2693 9.93337 20.3201 9.99998 20.3842C10.0666 20.4482 10.1194 20.5243 10.1555 20.6079C10.1915 20.6916 10.21 20.7813 10.21 20.8719Z" fill="#127CC1"/>
<path d="M10.21 22.6219C10.21 22.7124 10.1915 22.8021 10.1555 22.8858C10.1194 22.9695 10.0666 23.0455 9.99998 23.1096C9.93337 23.1736 9.85429 23.2244 9.76724 23.2591C9.6802 23.2938 9.5869 23.3116 9.49268 23.3116C9.39846 23.3116 9.30517 23.2938 9.21812 23.2591C9.13108 23.2244 9.05199 23.1736 8.98538 23.1096C8.91877 23.0455 8.86595 22.9695 8.82991 22.8858C8.79388 22.8021 8.77535 22.7124 8.77539 22.6219C8.77535 22.5313 8.79388 22.4416 8.82991 22.3579C8.86595 22.2743 8.91877 22.1982 8.98538 22.1342C9.05199 22.0701 9.13108 22.0193 9.21812 21.9846C9.30517 21.95 9.39846 21.9321 9.49268 21.9321C9.5869 21.9321 9.6802 21.95 9.76724 21.9846C9.85429 22.0193 9.93337 22.0701 9.99998 22.1342C10.0666 22.1982 10.1194 22.2743 10.1555 22.3579C10.1915 22.4416 10.21 22.5313 10.21 22.6219Z" fill="#127CC1"/>
<path d="M10.21 24.372C10.21 24.4625 10.1915 24.5522 10.1555 24.6359C10.1194 24.7196 10.0666 24.7956 9.99998 24.8597C9.93337 24.9237 9.85429 24.9745 9.76724 25.0092C9.6802 25.0439 9.5869 25.0617 9.49268 25.0617C9.39846 25.0617 9.30517 25.0439 9.21812 25.0092C9.13108 24.9745 9.05199 24.9237 8.98538 24.8597C8.91877 24.7956 8.86595 24.7196 8.82991 24.6359C8.79388 24.5522 8.77535 24.4625 8.77539 24.372C8.77535 24.2814 8.79388 24.1917 8.82991 24.1081C8.86595 24.0244 8.91877 23.9483 8.98538 23.8843C9.05199 23.8202 9.13108 23.7694 9.21812 23.7348C9.30517 23.7001 9.39846 23.6823 9.49268 23.6823C9.5869 23.6823 9.6802 23.7001 9.76724 23.7348C9.85429 23.7694 9.93337 23.8202 9.99998 23.8843C10.0666 23.9483 10.1194 24.0244 10.1555 24.1081C10.1915 24.1917 10.21 24.2814 10.21 24.372Z" fill="#127CC1"/>
<path d="M12.0283 20.8719C12.0284 20.9624 12.0098 21.0521 11.9738 21.1358C11.9378 21.2195 11.885 21.2955 11.8183 21.3596C11.7517 21.4236 11.6726 21.4744 11.5856 21.5091C11.4986 21.5438 11.4053 21.5616 11.311 21.5616C11.2168 21.5616 11.1235 21.5438 11.0365 21.5091C10.9494 21.4744 10.8704 21.4236 10.8037 21.3596C10.7371 21.2955 10.6843 21.2195 10.6483 21.1358C10.6122 21.0521 10.5937 20.9624 10.5938 20.8719C10.5937 20.7813 10.6122 20.6916 10.6483 20.6079C10.6843 20.5243 10.7371 20.4482 10.8037 20.3842C10.8704 20.3201 10.9494 20.2693 11.0365 20.2346C11.1235 20.2 11.2168 20.1821 11.311 20.1821C11.4053 20.1821 11.4986 20.2 11.5856 20.2346C11.6726 20.2693 11.7517 20.3201 11.8183 20.3842C11.885 20.4482 11.9378 20.5243 11.9738 20.6079C12.0098 20.6916 12.0284 20.7813 12.0283 20.8719Z" fill="#127CC1"/>
<path d="M12.0283 22.6219C12.0284 22.7124 12.0098 22.8021 11.9738 22.8858C11.9378 22.9695 11.885 23.0455 11.8183 23.1096C11.7517 23.1736 11.6726 23.2244 11.5856 23.2591C11.4986 23.2938 11.4053 23.3116 11.311 23.3116C11.2168 23.3116 11.1235 23.2938 11.0365 23.2591C10.9494 23.2244 10.8704 23.1736 10.8037 23.1096C10.7371 23.0455 10.6843 22.9695 10.6483 22.8858C10.6122 22.8021 10.5937 22.7124 10.5938 22.6219C10.5937 22.5313 10.6122 22.4416 10.6483 22.3579C10.6843 22.2743 10.7371 22.1982 10.8037 22.1342C10.8704 22.0701 10.9494 22.0193 11.0365 21.9846C11.1235 21.95 11.2168 21.9321 11.311 21.9321C11.4053 21.9321 11.4986 21.95 11.5856 21.9846C11.6726 22.0193 11.7517 22.0701 11.8183 22.1342C11.885 22.1982 11.9378 22.2743 11.9738 22.3579C12.0098 22.4416 12.0284 22.5313 12.0283 22.6219Z" fill="#127CC1"/>
<path d="M12.0283 24.372C12.0284 24.4625 12.0098 24.5522 11.9738 24.6359C11.9378 24.7196 11.885 24.7956 11.8183 24.8597C11.7517 24.9237 11.6726 24.9745 11.5856 25.0092C11.4986 25.0439 11.4053 25.0617 11.311 25.0617C11.2168 25.0617 11.1235 25.0439 11.0365 25.0092C10.9494 24.9745 10.8704 24.9237 10.8037 24.8597C10.7371 24.7956 10.6843 24.7196 10.6483 24.6359C10.6122 24.5522 10.5937 24.4625 10.5938 24.372C10.5937 24.2814 10.6122 24.1917 10.6483 24.1081C10.6843 24.0244 10.7371 23.9483 10.8037 23.8843C10.8704 23.8202 10.9494 23.7694 11.0365 23.7348C11.1235 23.7001 11.2168 23.6823 11.311 23.6823C11.4053 23.6823 11.4986 23.7001 11.5856 23.7348C11.6726 23.7694 11.7517 23.8202 11.8183 23.8843C11.885 23.9483 11.9378 24.0244 11.9738 24.1081C12.0098 24.1917 12.0284 24.2814 12.0283 24.372Z" fill="#127CC1"/>
<path d="M13.8506 20.8719C13.8506 20.9624 13.8321 21.0521 13.7961 21.1358C13.76 21.2195 13.7072 21.2955 13.6406 21.3596C13.574 21.4236 13.4949 21.4744 13.4079 21.5091C13.3208 21.5438 13.2275 21.5616 13.1333 21.5616C13.0391 21.5616 12.9458 21.5438 12.8587 21.5091C12.7717 21.4744 12.6926 21.4236 12.626 21.3596C12.5594 21.2955 12.5066 21.2195 12.4705 21.1358C12.4345 21.0521 12.416 20.9624 12.416 20.8719C12.416 20.7813 12.4345 20.6916 12.4705 20.6079C12.5066 20.5243 12.5594 20.4482 12.626 20.3842C12.6926 20.3201 12.7717 20.2693 12.8587 20.2346C12.9458 20.2 13.0391 20.1821 13.1333 20.1821C13.2275 20.1821 13.3208 20.2 13.4079 20.2346C13.4949 20.2693 13.574 20.3201 13.6406 20.3842C13.7072 20.4482 13.76 20.5243 13.7961 20.6079C13.8321 20.6916 13.8506 20.7813 13.8506 20.8719Z" fill="#127CC1"/>
<path d="M13.8506 22.6219C13.8506 22.7124 13.8321 22.8021 13.7961 22.8858C13.76 22.9695 13.7072 23.0455 13.6406 23.1096C13.574 23.1736 13.4949 23.2244 13.4079 23.2591C13.3208 23.2938 13.2275 23.3116 13.1333 23.3116C13.0391 23.3116 12.9458 23.2938 12.8587 23.2591C12.7717 23.2244 12.6926 23.1736 12.626 23.1096C12.5594 23.0455 12.5066 22.9695 12.4705 22.8858C12.4345 22.8021 12.416 22.7124 12.416 22.6219C12.416 22.5313 12.4345 22.4416 12.4705 22.3579C12.5066 22.2743 12.5594 22.1982 12.626 22.1342C12.6926 22.0701 12.7717 22.0193 12.8587 21.9846C12.9458 21.95 13.0391 21.9321 13.1333 21.9321C13.2275 21.9321 13.3208 21.95 13.4079 21.9846C13.4949 22.0193 13.574 22.0701 13.6406 22.1342C13.7072 22.1982 13.76 22.2743 13.7961 22.3579C13.8321 22.4416 13.8506 22.5313 13.8506 22.6219Z" fill="#127CC1"/>
<path d="M13.8506 24.372C13.8506 24.4625 13.8321 24.5522 13.7961 24.6359C13.76 24.7196 13.7072 24.7956 13.6406 24.8597C13.574 24.9237 13.4949 24.9745 13.4079 25.0092C13.3208 25.0439 13.2275 25.0617 13.1333 25.0617C13.0391 25.0617 12.9458 25.0439 12.8587 25.0092C12.7717 24.9745 12.6926 24.9237 12.626 24.8597C12.5594 24.7956 12.5066 24.7196 12.4705 24.6359C12.4345 24.5522 12.416 24.4625 12.416 24.372C12.416 24.2814 12.4345 24.1917 12.4705 24.1081C12.5066 24.0244 12.5594 23.9483 12.626 23.8843C12.6926 23.8202 12.7717 23.7694 12.8587 23.7348C12.9458 23.7001 13.0391 23.6823 13.1333 23.6823C13.2275 23.6823 13.3208 23.7001 13.4079 23.7348C13.4949 23.7694 13.574 23.8202 13.6406 23.8843C13.7072 23.9483 13.76 24.0244 13.7961 24.1081C13.8321 24.1917 13.8506 24.2814 13.8506 24.372Z" fill="#127CC1"/>
<path d="M15.669 20.8719C15.669 20.9624 15.6505 21.0521 15.6144 21.1358C15.5784 21.2195 15.5256 21.2955 15.459 21.3596C15.3924 21.4236 15.3133 21.4744 15.2262 21.5091C15.1392 21.5438 15.0459 21.5616 14.9517 21.5616C14.8574 21.5616 14.7642 21.5438 14.6771 21.5091C14.5901 21.4744 14.511 21.4236 14.4444 21.3596C14.3778 21.2955 14.3249 21.2195 14.2889 21.1358C14.2529 21.0521 14.2343 20.9624 14.2344 20.8719C14.2343 20.7813 14.2529 20.6916 14.2889 20.6079C14.3249 20.5243 14.3778 20.4482 14.4444 20.3842C14.511 20.3201 14.5901 20.2693 14.6771 20.2346C14.7642 20.2 14.8574 20.1821 14.9517 20.1821C15.0459 20.1821 15.1392 20.2 15.2262 20.2346C15.3133 20.2693 15.3924 20.3201 15.459 20.3842C15.5256 20.4482 15.5784 20.5243 15.6144 20.6079C15.6505 20.6916 15.669 20.7813 15.669 20.8719Z" fill="#127CC1"/>
<path d="M15.669 22.6219C15.669 22.7124 15.6505 22.8021 15.6144 22.8858C15.5784 22.9695 15.5256 23.0455 15.459 23.1096C15.3924 23.1736 15.3133 23.2244 15.2262 23.2591C15.1392 23.2938 15.0459 23.3116 14.9517 23.3116C14.8574 23.3116 14.7642 23.2938 14.6771 23.2591C14.5901 23.2244 14.511 23.1736 14.4444 23.1096C14.3778 23.0455 14.3249 22.9695 14.2889 22.8858C14.2529 22.8021 14.2343 22.7124 14.2344 22.6219C14.2343 22.5313 14.2529 22.4416 14.2889 22.3579C14.3249 22.2743 14.3778 22.1982 14.4444 22.1342C14.511 22.0701 14.5901 22.0193 14.6771 21.9846C14.7642 21.95 14.8574 21.9321 14.9517 21.9321C15.0459 21.9321 15.1392 21.95 15.2262 21.9846C15.3133 22.0193 15.3924 22.0701 15.459 22.1342C15.5256 22.1982 15.5784 22.2743 15.6144 22.3579C15.6505 22.4416 15.669 22.5313 15.669 22.6219Z" fill="#127CC1"/>
<path d="M15.669 24.372C15.669 24.4625 15.6505 24.5522 15.6144 24.6359C15.5784 24.7196 15.5256 24.7956 15.459 24.8597C15.3924 24.9237 15.3133 24.9745 15.2262 25.0092C15.1392 25.0439 15.0459 25.0617 14.9517 25.0617C14.8574 25.0617 14.7642 25.0439 14.6771 25.0092C14.5901 24.9745 14.511 24.9237 14.4444 24.8597C14.3778 24.7956 14.3249 24.7196 14.2889 24.6359C14.2529 24.5522 14.2343 24.4625 14.2344 24.372C14.2343 24.2814 14.2529 24.1917 14.2889 24.1081C14.3249 24.0244 14.3778 23.9483 14.4444 23.8843C14.511 23.8202 14.5901 23.7694 14.6771 23.7348C14.7642 23.7001 14.8574 23.6823 14.9517 23.6823C15.0459 23.6823 15.1392 23.7001 15.2262 23.7348C15.3133 23.7694 15.3924 23.8202 15.459 23.8843C15.5256 23.9483 15.5784 24.0244 15.6144 24.1081C15.6505 24.1917 15.669 24.2814 15.669 24.372Z" fill="#127CC1"/>
<path d="M17.4893 20.8719C17.4893 20.9624 17.4708 21.0521 17.4347 21.1358C17.3987 21.2195 17.3459 21.2955 17.2793 21.3596C17.2127 21.4236 17.1336 21.4744 17.0465 21.5091C16.9595 21.5438 16.8662 21.5616 16.772 21.5616C16.6778 21.5616 16.5845 21.5438 16.4974 21.5091C16.4104 21.4744 16.3313 21.4236 16.2647 21.3596C16.1981 21.2955 16.1452 21.2195 16.1092 21.1358C16.0732 21.0521 16.0547 20.9624 16.0547 20.8719C16.0547 20.7813 16.0732 20.6916 16.1092 20.6079C16.1452 20.5243 16.1981 20.4482 16.2647 20.3842C16.3313 20.3201 16.4104 20.2693 16.4974 20.2346C16.5845 20.2 16.6778 20.1821 16.772 20.1821C16.8662 20.1821 16.9595 20.2 17.0465 20.2346C17.1336 20.2693 17.2127 20.3201 17.2793 20.3842C17.3459 20.4482 17.3987 20.5243 17.4347 20.6079C17.4708 20.6916 17.4893 20.7813 17.4893 20.8719Z" fill="#127CC1"/>
<path d="M17.4893 22.6219C17.4893 22.7124 17.4708 22.8021 17.4347 22.8858C17.3987 22.9695 17.3459 23.0455 17.2793 23.1096C17.2127 23.1736 17.1336 23.2244 17.0465 23.2591C16.9595 23.2938 16.8662 23.3116 16.772 23.3116C16.6778 23.3116 16.5845 23.2938 16.4974 23.2591C16.4104 23.2244 16.3313 23.1736 16.2647 23.1096C16.1981 23.0455 16.1452 22.9695 16.1092 22.8858C16.0732 22.8021 16.0547 22.7124 16.0547 22.6219C16.0547 22.5313 16.0732 22.4416 16.1092 22.3579C16.1452 22.2743 16.1981 22.1982 16.2647 22.1342C16.3313 22.0701 16.4104 22.0193 16.4974 21.9846C16.5845 21.95 16.6778 21.9321 16.772 21.9321C16.8662 21.9321 16.9595 21.95 17.0465 21.9846C17.1336 22.0193 17.2127 22.0701 17.2793 22.1342C17.3459 22.1982 17.3987 22.2743 17.4347 22.3579C17.4708 22.4416 17.4893 22.5313 17.4893 22.6219Z" fill="#127CC1"/>
<path d="M17.4893 24.372C17.4893 24.4625 17.4708 24.5522 17.4347 24.6359C17.3987 24.7196 17.3459 24.7956 17.2793 24.8597C17.2127 24.9237 17.1336 24.9745 17.0465 25.0092C16.9595 25.0439 16.8662 25.0617 16.772 25.0617C16.6778 25.0617 16.5845 25.0439 16.4974 25.0092C16.4104 24.9745 16.3313 24.9237 16.2647 24.8597C16.1981 24.7956 16.1452 24.7196 16.1092 24.6359C16.0732 24.5522 16.0547 24.4625 16.0547 24.372C16.0547 24.2814 16.0732 24.1917 16.1092 24.1081C16.1452 24.0244 16.1981 23.9483 16.2647 23.8843C16.3313 23.8202 16.4104 23.7694 16.4974 23.7348C16.5845 23.7001 16.6778 23.6823 16.772 23.6823C16.8662 23.6823 16.9595 23.7001 17.0465 23.7348C17.1336 23.7694 17.2127 23.8202 17.2793 23.8843C17.3459 23.9483 17.3987 24.0244 17.4347 24.1081C17.4708 24.1917 17.4893 24.2814 17.4893 24.372Z" fill="#127CC1"/>
<path d="M17.4893 19.1219C17.4893 19.2124 17.4708 19.3021 17.4347 19.3858C17.3987 19.4695 17.3459 19.5455 17.2793 19.6096C17.2127 19.6736 17.1336 19.7244 17.0465 19.7591C16.9595 19.7938 16.8662 19.8116 16.772 19.8116C16.6778 19.8116 16.5845 19.7938 16.4974 19.7591C16.4104 19.7244 16.3313 19.6736 16.2647 19.6096C16.1981 19.5455 16.1452 19.4695 16.1092 19.3858C16.0732 19.3021 16.0547 19.2124 16.0547 19.1219C16.0547 19.0313 16.0732 18.9416 16.1092 18.8579C16.1452 18.7743 16.1981 18.6982 16.2647 18.6342C16.3313 18.5701 16.4104 18.5193 16.4974 18.4846C16.5845 18.45 16.6778 18.4321 16.772 18.4321C16.8662 18.4321 16.9595 18.45 17.0465 18.4846C17.1336 18.5193 17.2127 18.5701 17.2793 18.6342C17.3459 18.6982 17.3987 18.7743 17.4347 18.8579C17.4708 18.9416 17.4893 19.0313 17.4893 19.1219Z" fill="#127CC1"/>
<path d="M17.4893 26.1221C17.4893 26.2127 17.4708 26.3024 17.4347 26.386C17.3987 26.4697 17.3459 26.5458 17.2793 26.6098C17.2127 26.6739 17.1336 26.7247 17.0465 26.7593C16.9595 26.794 16.8662 26.8118 16.772 26.8118C16.6778 26.8118 16.5845 26.794 16.4974 26.7593C16.4104 26.7247 16.3313 26.6739 16.2647 26.6098C16.1981 26.5458 16.1452 26.4697 16.1092 26.386C16.0732 26.3024 16.0547 26.2127 16.0547 26.1221C16.0547 26.0315 16.0732 25.9419 16.1092 25.8582C16.1452 25.7745 16.1981 25.6985 16.2647 25.6344C16.3313 25.5704 16.4104 25.5195 16.4974 25.4849C16.5845 25.4502 16.6778 25.4324 16.772 25.4324C16.8662 25.4324 16.9595 25.4502 17.0465 25.4849C17.1336 25.5195 17.2127 25.5704 17.2793 25.6344C17.3459 25.6985 17.3987 25.7745 17.4347 25.8582C17.4708 25.9419 17.4893 26.0315 17.4893 26.1221Z" fill="#127CC1"/>
<path d="M19.3096 20.8719C19.3096 20.9624 19.2911 21.0521 19.2551 21.1358C19.219 21.2195 19.1662 21.2955 19.0996 21.3596C19.033 21.4236 18.9539 21.4744 18.8669 21.5091C18.7798 21.5438 18.6865 21.5616 18.5923 21.5616C18.4981 21.5616 18.4048 21.5438 18.3177 21.5091C18.2307 21.4744 18.1516 21.4236 18.085 21.3596C18.0184 21.2955 17.9656 21.2195 17.9295 21.1358C17.8935 21.0521 17.875 20.9624 17.875 20.8719C17.875 20.7813 17.8935 20.6916 17.9295 20.6079C17.9656 20.5243 18.0184 20.4482 18.085 20.3842C18.1516 20.3201 18.2307 20.2693 18.3177 20.2346C18.4048 20.2 18.4981 20.1821 18.5923 20.1821C18.6865 20.1821 18.7798 20.2 18.8669 20.2346C18.9539 20.2693 19.033 20.3201 19.0996 20.3842C19.1662 20.4482 19.219 20.5243 19.2551 20.6079C19.2911 20.6916 19.3096 20.7813 19.3096 20.8719Z" fill="#127CC1"/>
<path d="M19.3096 22.6219C19.3096 22.7124 19.2911 22.8021 19.2551 22.8858C19.219 22.9695 19.1662 23.0455 19.0996 23.1096C19.033 23.1736 18.9539 23.2244 18.8669 23.2591C18.7798 23.2938 18.6865 23.3116 18.5923 23.3116C18.4981 23.3116 18.4048 23.2938 18.3177 23.2591C18.2307 23.2244 18.1516 23.1736 18.085 23.1096C18.0184 23.0455 17.9656 22.9695 17.9295 22.8858C17.8935 22.8021 17.875 22.7124 17.875 22.6219C17.875 22.5313 17.8935 22.4416 17.9295 22.3579C17.9656 22.2743 18.0184 22.1982 18.085 22.1342C18.1516 22.0701 18.2307 22.0193 18.3177 21.9846C18.4048 21.95 18.4981 21.9321 18.5923 21.9321C18.6865 21.9321 18.7798 21.95 18.8669 21.9846C18.9539 22.0193 19.033 22.0701 19.0996 22.1342C19.1662 22.1982 19.219 22.2743 19.2551 22.3579C19.2911 22.4416 19.3096 22.5313 19.3096 22.6219Z" fill="#127CC1"/>
<path d="M19.3096 24.372C19.3096 24.4625 19.2911 24.5522 19.2551 24.6359C19.219 24.7196 19.1662 24.7956 19.0996 24.8597C19.033 24.9237 18.9539 24.9745 18.8669 25.0092C18.7798 25.0439 18.6865 25.0617 18.5923 25.0617C18.4981 25.0617 18.4048 25.0439 18.3177 25.0092C18.2307 24.9745 18.1516 24.9237 18.085 24.8597C18.0184 24.7956 17.9656 24.7196 17.9295 24.6359C17.8935 24.5522 17.875 24.4625 17.875 24.372C17.875 24.2814 17.8935 24.1917 17.9295 24.1081C17.9656 24.0244 18.0184 23.9483 18.085 23.8843C18.1516 23.8202 18.2307 23.7694 18.3177 23.7348C18.4048 23.7001 18.4981 23.6823 18.5923 23.6823C18.6865 23.6823 18.7798 23.7001 18.8669 23.7348C18.9539 23.7694 19.033 23.8202 19.0996 23.8843C19.1662 23.9483 19.219 24.0244 19.2551 24.1081C19.2911 24.1917 19.3096 24.2814 19.3096 24.372Z" fill="#127CC1"/>
<path d="M21.1279 22.6219C21.128 22.7124 21.1095 22.8021 21.0734 22.8858C21.0374 22.9695 20.9846 23.0455 20.918 23.1096C20.8513 23.1736 20.7723 23.2244 20.6852 23.2591C20.5982 23.2938 20.5049 23.3116 20.4107 23.3116C20.3164 23.3116 20.2231 23.2938 20.1361 23.2591C20.049 23.2244 19.97 23.1736 19.9034 23.1096C19.8367 23.0455 19.7839 22.9695 19.7479 22.8858C19.7119 22.8021 19.6933 22.7124 19.6934 22.6219C19.6933 22.5313 19.7119 22.4416 19.7479 22.3579C19.7839 22.2743 19.8367 22.1982 19.9034 22.1342C19.97 22.0701 20.049 22.0193 20.1361 21.9846C20.2231 21.95 20.3164 21.9321 20.4107 21.9321C20.5049 21.9321 20.5982 21.95 20.6852 21.9846C20.7723 22.0193 20.8513 22.0701 20.918 22.1342C20.9846 22.1982 21.0374 22.2743 21.0734 22.3579C21.1095 22.4416 21.128 22.5313 21.1279 22.6219Z" fill="#127CC1"/>
<path fill-rule="evenodd" clip-rule="evenodd" d="M11.1163 9.87598C10.7714 12.4338 8.132 14.1585 8.15264 16.6285C8.13108 17.9198 9.27334 19.9037 11.5267 19.8294C12.7238 19.814 13.6908 19.3334 14.3016 18.6255C15.43 17.2223 15.0769 15.4251 14.3519 13.9351C13.5272 12.3834 12.0934 11.1568 11.1163 9.87598Z" fill="#343133"/>
<path fill-rule="evenodd" clip-rule="evenodd" d="M12.506 13.2083C12.4387 13.7073 11.9238 14.0438 11.9278 14.5257C11.9236 14.7776 12.1464 15.1647 12.5861 15.1502C12.8196 15.1472 13.0083 15.0534 13.1275 14.9153C13.3476 14.6415 13.2698 14.2909 13.1284 14.0002C12.9675 13.6975 12.6966 13.4581 12.506 13.2083Z" fill="white"/>
</svg>
