<svg xmlns="http://www.w3.org/2000/svg" viewBox="-5 -10 110 90" fill="currentColor">
  <path d="m55.223 17.5 29.098 15.27c1.6797 0.87891 1.7227 3.2695 0.074219 4.207l-4.9336 2.8242c-1.1523 0.65625-2.6172 0.25781-3.2773-0.89062-0.65625-1.1523-0.25781-2.6172 0.89453-3.2773l1.1328-0.64844-25.219-13.234c-2.3477-1.2305-5.1289-1.2734-7.5078-0.13672l-0.26953 0.13672-25.09 13.164 6.7773 3.6328c0.72656 0.38672 1.1992 1.1211 1.2617 1.9375l0.003907 0.17578v27.551c0 0.6875 0.38672 1.3203 1 1.6367l0.023437 0.011719 0.61719 0.3125c6.4336 3.2188 12.797 4.8672 19.113 4.9727l0.62891 0.003907c6.6953 0 13.191-1.7383 19.531-5.2344 0.58984-0.32422 0.95312-0.94531 0.95312-1.6172v-23.648l-14.375 7.6211c-3.707 1.9609-8.1172 2.0391-11.883 0.22656l-0.33984-0.17188-11.832-6.125c-1.1758-0.60938-1.6367-2.0586-1.0273-3.2344 0.61328-1.1797 2.0586-1.6367 3.2383-1.0273l11.828 6.125c2.4375 1.2656 5.3438 1.25 7.7695-0.035156l17.898-9.4883c1.5977-0.84766 3.5234 0.3125 3.5234 2.1211v27.637c0 2.4219-1.3164 4.6484-3.4336 5.8203-7.0352 3.8789-14.332 5.832-21.852 5.832-7.5234 0-15.062-1.9531-22.586-5.8359l-0.03125-0.019531-0.20312-0.10938c-1.9961-1.1328-3.2656-3.2148-3.3555-5.5078l-0.003906-0.26562-0.003906-26.113-9.5-5.0859c-1.6445-0.88281-1.6875-3.1953-0.13672-4.1523l0.15625-0.089844 29.098-15.27c3.832-2.0117 8.4062-2.0117 12.238 0zm27.984 27.031c1.3242 0 2.3984 1.0742 2.3984 2.3984v14.809c0 1.3242-1.0742 2.3984-2.3984 2.3984-1.3281 0-2.4023-1.0742-2.4023-2.3984v-14.809c0-1.3242 1.0742-2.3984 2.4023-2.3984z"/>
</svg>
