<svg xmlns="http://www.w3.org/2000/svg" viewBox="0 0 16.933333 14.816667" fill="currentColor">
  <g transform="translate(0,6.35)">
    <path d="m 8.4674405,-5.5547318 c -1.9673544,0 -3.5780768,1.547148 -3.5780768,3.460771 0,1.91362297 1.6107224,3.461287 3.5780768,3.461287 1.9673545,0 3.5760105,-1.54766403 3.5760105,-3.461287 0,-1.913623 -1.608656,-3.460771 -3.5760105,-3.460771 z m 0,0.529167 c 1.6913625,0 3.0468435,1.314317 3.0468435,2.931604 0,1.61728697 -1.355481,2.93367097 -3.0468435,2.93367097 -1.6913595,0 -3.0489102,-1.316384 -3.0489102,-2.93367097 0,-1.617287 1.3575507,-2.931604 3.0489102,-2.931604 z m 0,6.87865 c -3.0992445,0 -5.613093,2.415882 -5.613093,5.42189 v 2.248442 c 0,0.352864 0.5291666,0.352864 0.5291666,0 v -2.248442 c 0,-2.084385 1.3368258,-3.851693 3.237529,-4.559927 l 1.5807822,2.741435 v 4.066934 c 0,0.352864 0.5291666,0.352864 0.5291666,0 v -4.066934 l 1.5818141,-2.741951 c 1.900571,0.708046 3.236495,2.475783 3.236495,4.560443 v 2.248442 c 0,0.352864 0.529685,0.352864 0.529685,0 v -2.248442 c 0,-3.006008 -2.512296,-5.42189 -5.6115455,-5.42189 z m 0,0.527617 c 0.460494,0 0.90356,0.06326 1.3265335,0.172082 L 8.4653741,4.8549682 7.1393565,2.5533002 c 0.4235318,-0.10908 0.8670211,-0.172598 1.328084,-0.172598 z"/>
  </g>
</svg>
