<svg xmlns="http://www.w3.org/2000/svg" viewBox="-5 -10 110 110" fill="currentColor">
  <path d="m38.301 2.9414c-10.848 0-19.668 8.832-19.668 19.691 0 7.8633 4.6211 14.664 11.289 17.824-14.391 3.7188-24.988 16.777-24.988 32.367v15.938l-0.003906-0.003907c0 0.39063 0.15234 0.76563 0.42578 1.043 0.27734 0.27734 0.64844 0.43359 1.0391 0.43359h45.641c0.39062 0 0.76172-0.15625 1.0391-0.43359 0.27344-0.27734 0.42969-0.65234 0.42578-1.043 0-0.80859-0.65625-1.4648-1.4648-1.4648h-44.164v-14.473c0-16.91 13.547-30.477 30.43-30.484h0.011719c10.27 0 19.285 5.0312 24.793 12.766v0.003907c0.22656 0.31641 0.57422 0.53125 0.95703 0.59375 0.38672 0.0625 0.78125-0.027344 1.0977-0.25781 0.31641-0.22656 0.53516-0.56641 0.59766-0.95312 0.066407-0.38281-0.023437-0.77734-0.25-1.0977-4.4844-6.2969-11.109-10.953-18.816-12.938 6.668-3.1602 11.293-9.9609 11.293-17.82 0-10.863-8.8359-19.691-19.684-19.691zm0 2.9414c9.2578 0 16.738 7.4766 16.738 16.75 0 9.2734-7.4805 16.762-16.738 16.762-9.2578 0-16.727-7.4883-16.727-16.762 0-9.2734 7.4727-16.75 16.727-16.75zm32.691 45.246c-0.54297 0-1.0391 0.29297-1.3008 0.76562l-7.0586 12.973-14.523 2.7188-0.003906-0.003907c-0.52344 0.10156-0.95312 0.48047-1.1172 0.99219-0.16406 0.50781-0.039062 1.0664 0.32812 1.457l10.152 10.73-1.8906 14.633h-0.003906c-0.070313 0.53516 0.15625 1.0625 0.58984 1.3789 0.43359 0.31641 1.0039 0.375 1.4922 0.14844l13.352-6.3438 13.344 6.3359c0.48828 0.23047 1.0625 0.17578 1.4961-0.14453 0.4375-0.31641 0.66406-0.84766 0.58984-1.3828l-1.9062-14.637 10.137-10.734h0.003906c0.36719-0.39062 0.49219-0.94922 0.32422-1.4609-0.16406-0.50781-0.59375-0.88672-1.1211-0.98828l-14.523-2.707-7.0781-12.953v-0.003906c-0.25391-0.47266-0.74609-0.76562-1.2812-0.77344zm0.003906 4.5352 6.1094 11.215c0.21094 0.38672 0.58594 0.66016 1.0195 0.73828l12.551 2.3477-8.7734 9.2734 0.003906 0.003907c-0.30078 0.32031-0.44141 0.75781-0.38672 1.1914l1.6445 12.656-11.531-5.4648c-0.40234-0.1875-0.86719-0.18359-1.2656 0.007812l-11.535 5.4766 1.6445-12.664c0.054688-0.4375-0.089843-0.87891-0.39453-1.1992l-8.7852-9.2773 12.559-2.3477h-0.003907c0.4375-0.078125 0.8125-0.34766 1.0273-0.73828z"/>
</svg>
