<svg xmlns="http://www.w3.org/2000/svg" viewBox="-5 -10 110 110" fill="currentColor">
  <path d="m49.84 51.988c4.8789-2.9883 8.1602-8.3594 8.1602-14.488 0-9.3711-7.6289-17-17-17s-17 7.6289-17 17c0 6.1289 3.2812 11.5 8.1602 14.488-10.559 3.6719-18.16 13.711-18.16 25.512 0 1.1016 0.89844 2 2 2s2-0.89844 2-2c0-12.68 10.32-23 23-23s23 10.32 23 23c0 1.1016 0.89844 2 2 2s2-0.89844 2-2c0-11.789-7.6016-21.84-18.16-25.512zm-21.84-14.488c0-7.1719 5.8281-13 13-13s13 5.8281 13 13-5.8281 13-13 13-13-5.8281-13-13z"/>
  <path d="m67.871 52c4.8711-2.9883 8.1289-8.3711 8.1289-14.5 0-9.3711-7.6289-17-17-17-1.1016 0-2 0.89844-2 2s0.89844 2 2 2c7.1719 0 13 5.8281 13 13s-5.8281 13-13 13c-1.1016 0-2 0.89844-2 2s0.89844 2 2 2c12.68 0 23 10.32 23 23 0 1.1016 0.89844 2 2 2s2-0.89844 2-2c0-11.781-7.5781-21.828-18.129-25.5z"/>
</svg>
