<?xml version="1.0" encoding="UTF-8"?>
<!DOCTYPE svg PUBLIC "-//W3C//DTD SVG 1.1//EN" "http://www.w3.org/Graphics/SVG/1.1/DTD/svg11.dtd">
<!-- Creator: CorelDRAW 2021 (64-Bit) -->
<svg xmlns="http://www.w3.org/2000/svg" xml:space="preserve" width="344.255mm" height="344.255mm" version="1.1" style="shape-rendering:geometricPrecision; text-rendering:geometricPrecision; image-rendering:optimizeQuality; fill-rule:evenodd; clip-rule:evenodd"
viewBox="0 0 34422.03 34422.17"
 xmlns:xlink="http://www.w3.org/1999/xlink"
 xmlns:xodm="http://www.corel.com/coreldraw/odm/2003">
 <defs>
 </defs>
 <g id="Слой_x0020_1">
  <metadata id="CorelCorpID_0Corel-Layer"/>
  <path class="fil0" d="M18570.51 34372.91l-126.78 -1668.11 -140.83 10.7 126.78 1668.11 140.83 -10.7zm-907.13 45.98l-38.73 -1672.47 -141.21 3.27 38.74 1672.48 141.2 -3.28zm-905.66 -0.05l38.73 -1672.47 -141.2 -3.27 -38.74 1672.47 141.21 3.27zm-907.14 -46.17l126.78 -1668.11 -140.83 -10.71 -126.78 1668.11 140.83 10.71zm-903.22 -95.45l214.36 -1659.13 -140.07 -18.1 -214.37 1659.13 140.08 18.1zm-894.55 -140.94l290.49 -1647.5 -139.09 -24.53 -290.5 1647.51 139.1 24.52zm-888.22 -187.75l375.02 -1630.34 -137.65 -31.67 -375.01 1630.35 137.64 31.66zm-876.04 -233.77l453.94 -1610.16 -135.94 -38.32 -453.95 1610.15 135.95 38.33zm-864.07 -284.55l543.2 -1582.27 -133.59 -45.87 -543.2 1582.27 133.59 45.87zm-865.75 -330.05l691.13 -1523.49 -128.62 -58.35 -691.14 1523.48 128.63 58.36zm-825.76 -375.64l765.45 -1487.53 -125.58 -64.63 -765.46 1487.53 125.59 64.63zm-803.37 -418.03l832.81 -1450.9 -122.5 -70.31 -832.8 1450.89 122.49 70.32zm-782.06 -457.8l900.53 -1409.86 -119.03 -76.03 -900.53 1409.85 119.03 76.04zm-757.89 -498.14l968.81 -1363.84 -115.14 -81.8 -968.81 1363.84 115.14 81.8zm-729.88 -537.42l1033.18 -1315.75 -111.08 -87.23 -1033.19 1315.74 111.09 87.24zm-700.89 -576.11l1097.9 -1262.25 -106.57 -92.7 -1097.89 1262.25 106.56 92.7zm-668.58 -609.99l1153.29 -1211.85 -102.31 -97.37 -1153.29 1211.85 102.31 97.37zm-637.93 -643.41l1209.14 -1156.13 -97.61 -102.08 -1209.13 1156.13 97.6 102.08zm-603.51 -677.39l1265.45 -1094.2 -92.39 -106.84 -1265.45 1094.2 92.39 106.84zm-566.5 -707.24l1315.74 -1033.19 -87.23 -111.08 -1315.75 1033.19 87.24 111.08zm-539.97 -752.41l1407.29 -904.54 -76.38 -118.82 -1407.28 904.55 76.37 118.81zm-488.04 -765.68l1451.93 -831 -70.16 -122.59 -1451.93 831 70.16 122.59zm-443.93 -787.99l1486.34 -767.75 -64.82 -125.49 -1486.34 767.76 64.82 125.48zm-406.61 -812.1l1524.44 -689.01 -58.18 -128.71 -1524.44 689.02 58.18 128.7zm-360.89 -830.85l1554.91 -617.2 -52.11 -131.28 -1554.91 617.2 52.11 131.28zm-317.11 -852.45l1586.81 -529.79 -44.73 -133.97 -1586.81 529.79 44.73 133.97zm-269.13 -863.87l1608.7 -459.08 -38.76 -135.82 -1608.7 459.08 38.76 135.82zm-225.76 -879.12l1630.07 -376.22 -31.77 -137.62 -1630.06 376.22 31.76 137.62zm-177.31 -890.67l1647.51 -290.49 -24.53 -139.1 -1647.5 290.49 24.52 139.1zm-131.19 -896.01l1659.13 -214.37 -18.1 -140.08 -1659.13 214.37 18.1 140.08zm-84.29 -904.4l1668.11 -126.78 -10.7 -140.83 -1668.11 126.78 10.7 140.83zm-34.87 -907.71l1672.47 -38.61 -3.26 -141.2 -1672.47 38.61 3.26 141.2zm9.74 -905.67l1672.47 38.87 3.28 -141.21 -1672.46 -38.86 -3.29 141.2zm57.25 -906.55l1668.11 126.78 10.71 -140.83 -1668.11 -126.78 -10.71 140.83zm106.47 -902.1l1659.13 214.36 18.1 -140.07 -1659.13 -214.37 -18.1 140.08zm150.51 -893.08l1647.5 290.49 24.53 -139.09 -1647.51 -290.5 -24.52 139.1zm201.56 -906.45l1610.16 453.94 38.32 -135.94 -1610.15 -453.95 -38.33 135.95zm248.5 -875.33l1582.27 543.2 45.87 -133.59 -1582.27 -543.2 -45.87 133.59zm297.32 -854.1l1557.58 610.44 51.54 -131.51 -1557.58 -610.43 -51.54 131.5zm339.13 -842.6l1523.49 691.13 58.35 -128.62 -1523.48 -691.14 -58.36 128.63zm384.99 -821.24l1487.53 765.45 64.63 -125.58 -1487.53 -765.46 -64.63 125.59zm426.5 -798.77l1450.9 832.81 70.31 -122.5 -1450.89 -832.8 -70.32 122.49zm466.32 -776.9l1409.86 900.53 76.03 -119.03 -1409.85 -900.53 -76.04 119.03zm506.72 -752.09l1363.84 968.81 81.8 -115.14 -1363.84 -968.81 -81.8 115.14zm545.52 -723.83l1315.75 1033.18 87.23 -111.08 -1315.74 -1033.19 -87.24 111.09zm584.25 -694.17l1262.25 1097.9 92.7 -106.57 -1262.25 -1097.89 -92.7 106.56zm616.95 -662.24l1211.85 1153.29 97.37 -102.31 -1211.85 -1153.29 -97.37 102.31zm664.42 -646.89l1094.2 1265.45 106.84 -92.39 -1094.2 -1265.45 -106.84 92.39zm686.92 -591.15l1033.19 1315.74 111.08 -87.23 -1033.19 -1315.75 -111.08 87.24zm717.17 -555.27l967.23 1364.97 115.24 -81.66 -967.23 -1364.98 -115.24 81.67zm743.88 -515.95l904.54 1407.29 118.82 -76.38 -904.55 -1407.28 -118.81 76.37zm771.3 -478.78l831 1451.93 122.59 -70.16 -831 -1451.93 -122.59 70.16zm792.31 -435.98l767.75 1486.34 125.49 -64.82 -767.76 -1486.34 -125.48 64.82zm816.9 -396.71l689.01 1524.44 128.71 -58.18 -689.02 -1524.44 -128.7 58.18zm834.68 -351.85l617.2 1554.91 131.28 -52.11 -617.2 -1554.91 -131.28 52.11zm856.46 -306.12l529.79 1586.81 133.97 -44.73 -529.79 -1586.81 -133.97 44.73zm866.62 -260.24l459.08 1608.7 135.82 -38.76 -459.08 -1608.7 -135.82 38.76zm881.81 -215.33l376.22 1630.07 137.62 -31.77 -376.22 -1630.06 -137.62 31.76zm892.86 -166.53l290.49 1647.51 139.1 -24.53 -290.49 -1647.5 -139.1 24.52zm897.47 -121.62l214.37 1659.13 140.08 -18.1 -214.37 -1659.13 -140.08 18.1zm927.66 -76.6l38.61 1672.47 141.2 -3.26 -38.61 -1672.47 -141.2 3.26zm905.67 -21.57l-38.87 1672.47 141.21 3.28 38.86 -1672.46 -141.2 -3.29zm908.31 21.73l-126.78 1668.11 140.83 10.71 126.78 -1668.11 -140.83 -10.71zm905.73 71.09l-214.36 1659.13 140.07 18.1 214.37 -1659.13 -140.08 -18.1zm897.78 119.75l-290.49 1647.5 139.09 24.53 290.5 -1647.51 -139.1 -24.52zm893 164.23l-375.02 1630.34 137.65 31.67 375.01 -1630.35 -137.64 -31.66zm881.66 211.8l-453.94 1610.16 135.94 38.32 453.95 -1610.15 -135.95 -38.33zm871.82 259.72l-543.2 1582.27 133.59 45.87 543.2 -1582.27 -133.59 -45.87zm850.99 305.78l-610.44 1557.58 131.51 51.54 610.43 -1557.58 -131.5 -51.54zm838.31 349.28l-691.13 1523.49 128.62 58.35 691.14 -1523.48 -128.63 -58.36zm816.72 394.34l-765.45 1487.53 125.58 64.63 765.46 -1487.53 -125.59 -64.63zm794.16 434.97l-832.81 1450.9 122.5 70.31 832.8 -1450.89 -122.49 -70.32zm771.74 474.83l-900.53 1409.86 119.03 76.03 900.53 -1409.85 -119.03 -76.04zm746.31 515.31l-968.81 1363.84 115.14 81.8 968.81 -1363.84 -115.14 -81.8zm717.77 553.62l-1033.18 1315.75 111.08 87.23 1033.19 -1315.74 -111.09 -87.24zm701.27 605.25l-1153.29 1211.85 102.31 97.37 1153.29 -1211.85 -102.31 -97.37zm653.42 627.86l-1209.14 1156.13 97.61 102.08 1209.13 -1156.13 -97.6 -102.08zm620.76 661.72l-1265.45 1094.2 92.39 106.84 1265.45 -1094.2 -92.39 -106.84zm583.47 693.25l-1315.74 1033.19 87.23 111.08 1315.75 -1033.19 -87.24 -111.08zm546.97 723.36l-1364.97 967.23 81.66 115.24 1364.98 -967.23 -81.67 -115.24zm508.07 749.2l-1407.29 904.54 76.38 118.82 1407.28 -904.55 -76.37 -118.81zm469.53 776.91l-1451.93 831 70.16 122.59 1451.93 -831 -70.16 -122.59zm428.03 796.65l-1486.34 767.75 64.82 125.49 1486.34 -767.76 -64.82 -125.48zm386.8 821.68l-1524.44 689.01 58.18 128.71 1524.44 -689.02 -58.18 -128.7zm342.82 838.5l-1554.91 617.2 52.11 131.28 1554.91 -617.2 -52.11 -131.28zm303.23 877.51l-1608.7 459.08 38.76 135.82 1608.7 -459.08 -38.76 -135.82zm248.82 873.18l-1630.07 376.22 31.77 137.62 1630.06 -376.22 -31.76 -137.62zm201.17 885.81l-1647.51 290.49 24.53 139.1 1647.5 -290.49 -24.52 -139.1zm152.38 892.78l-1659.13 214.37 18.1 140.08 1659.13 -214.37 -18.1 -140.08zm108.66 901.9l-1668.11 126.78 10.7 140.83 1668.11 -126.78 -10.7 -140.83zm59.41 906.46l-1672.47 38.73 3.27 141.21 1672.48 -38.74 -3.28 -141.2zm11.76 905.66l-1672.47 -38.73 -3.27 141.2 1672.47 38.74 3.27 -141.21zm-32.73 907.8l-1668.11 -126.78 -10.71 140.83 1668.11 126.78 10.71 -140.83zm-82.1 904.6l-1659.13 -214.36 -18.1 140.07 1659.13 214.37 18.1 -140.08zm-129.32 896.32l-1647.5 -290.49 -24.53 139.09 1647.51 290.5 24.52 -139.1zm-174.86 890.84l-1630.34 -375.02 -31.67 137.65 1630.35 375.01 31.66 -137.64zm-221.73 879.12l-1610.16 -453.94 -38.32 135.94 1610.15 453.95 38.33 -135.95zm-270.95 868.32l-1582.27 -543.2 -45.87 133.59 1582.27 543.2 45.87 -133.59zm-314.23 847.88l-1557.58 -610.44 -51.54 131.51 1557.58 610.43 51.54 -131.5zm-359.44 834.03l-1523.49 -691.13 -58.35 128.62 1523.48 691.14 58.36 -128.63zm-403.68 812.2l-1487.53 -765.45 -64.63 125.58 1487.53 765.46 64.63 -125.59zm-443.44 789.55l-1450.9 -832.81 -70.31 122.5 1450.89 832.8 70.32 -122.49zm-493.94 784.49l-1363.84 -968.81 -81.8 115.14 1363.84 968.81 81.8 -115.14zm-527.6 737.21l-1315.75 -1033.18 -87.23 111.08 1315.74 1033.19 87.24 -111.09zm-566.24 709.06l-1262.25 -1097.9 -92.7 106.57 1262.25 1097.89 92.7 -106.56zm-601.54 676.27l-1211.85 -1153.29 -97.37 102.31 1211.85 1153.29 97.37 -102.31zm-634.89 646.42l-1156.13 -1209.14 -102.08 97.61 1156.13 1209.13 102.08 -97.6zm-668.8 612.97l-1094.2 -1265.45 -106.84 92.39 1094.2 1265.45 106.84 -92.39zm-699.57 575.8l-1033.19 -1315.74 -111.08 87.23 1033.19 1315.75 111.08 -87.24zm-729.56 538.67l-967.23 -1364.97 -115.24 81.66 967.23 1364.98 115.24 -81.67zm-754.51 500.18l-904.54 -1407.29 -118.82 76.38 904.55 1407.28 118.81 -76.37zm-782.53 460.3l-831 -1451.93 -122.59 70.16 831 1451.93 122.59 -70.16zm-819.75 431.9l-689.01 -1524.44 -128.71 58.18 689.02 1524.44 128.7 -58.18zm-826.2 371.85l-617.2 -1554.91 -131.28 52.11 617.2 1554.91 131.28 -52.11zm-847.58 330.44l-529.79 -1586.81 -133.97 44.73 529.79 1586.81 133.97 -44.73zm-860.53 279.91l-459.08 -1608.7 -135.82 38.76 459.08 1608.7 135.82 -38.76zm-875.86 238.4l-376.22 -1630.07 -137.62 31.77 376.22 1630.06 137.62 -31.76zm-888.01 190.38l-290.49 -1647.51 -139.1 24.53 290.49 1647.5 139.1 -24.52zm-894.24 142.81l-214.37 -1659.13 -140.08 18.1 214.37 1659.13 140.08 -18.1z"/>
 </g>
</svg>
