<?xml version="1.0" encoding="UTF-8" standalone="no"?>
<!-- Created with Inkscape (http://www.inkscape.org/) -->
<svg
   xmlns:dc="http://purl.org/dc/elements/1.1/"
   xmlns:cc="http://creativecommons.org/ns#"
   xmlns:rdf="http://www.w3.org/1999/02/22-rdf-syntax-ns#"
   xmlns:svg="http://www.w3.org/2000/svg"
   xmlns="http://www.w3.org/2000/svg"
   xmlns:sodipodi="http://sodipodi.sourceforge.net/DTD/sodipodi-0.dtd"
   xmlns:inkscape="http://www.inkscape.org/namespaces/inkscape"
   width="500"
   height="150"
   id="svg2"
   sodipodi:version="0.32"
   inkscape:version="0.46"
   version="1.0"
   sodipodi:docname="KazMunayGas_logo.svg"
   inkscape:output_extension="org.inkscape.output.svg.inkscape">
  <defs
     id="defs4">
    <inkscape:perspective
       sodipodi:type="inkscape:persp3d"
       inkscape:vp_x="0 : 526.18109 : 1"
       inkscape:vp_y="0 : 1000 : 0"
       inkscape:vp_z="744.09448 : 526.18109 : 1"
       inkscape:persp3d-origin="372.04724 : 350.78739 : 1"
       id="perspective10" />
    <inkscape:perspective
       id="perspective2390"
       inkscape:persp3d-origin="372.04724 : 350.78739 : 1"
       inkscape:vp_z="744.09448 : 526.18109 : 1"
       inkscape:vp_y="0 : 1000 : 0"
       inkscape:vp_x="0 : 526.18109 : 1"
       sodipodi:type="inkscape:persp3d" />
  </defs>
  <sodipodi:namedview
     id="base"
     pagecolor="#ffffff"
     bordercolor="#666666"
     borderopacity="1.0"
     gridtolerance="10000"
     guidetolerance="10"
     objecttolerance="10"
     inkscape:pageopacity="0.0"
     inkscape:pageshadow="2"
     inkscape:zoom="2.0774971"
     inkscape:cx="284.85287"
     inkscape:cy="98.822835"
     inkscape:document-units="px"
     inkscape:current-layer="layer1"
     showgrid="false"
     inkscape:window-width="1670"
     inkscape:window-height="966"
     inkscape:window-x="0"
     inkscape:window-y="27"
     showguides="true"
     inkscape:guide-bbox="true" />
  <metadata
     id="metadata7">
    <rdf:RDF>
      <cc:Work
         rdf:about="">
        <dc:format>image/svg+xml</dc:format>
        <dc:type
           rdf:resource="http://purl.org/dc/dcmitype/StillImage" />
      </cc:Work>
    </rdf:RDF>
  </metadata>
  <g
     inkscape:label="Layer 1"
     inkscape:groupmode="layer"
     id="layer1">
    <g
       id="g2752">
      <g
         transform="translate(1,1)"
         style="fill:#a7a09a;fill-opacity:1"
         id="g2720">
        <path
           sodipodi:nodetypes="ccccccccccccccccc"
           id="path2722"
           d="M 296.42921,66.296924 L 289.14879,87.708121 L 289.14879,89.030482 L 294.95856,89.030482 L 294.95856,94.060533 L 289.14879,94.060533 L 289.14879,99.083072 L 279.50383,99.083072 L 279.50383,94.060533 L 273.92067,94.060533 L 273.92067,89.030482 L 279.50383,89.030482 L 279.50383,87.708121 L 271.2028,66.296924 L 280.57833,66.296924 L 284.44511,78.022917 L 288.05368,66.296924"
           style="font-size:40.1278038px;font-style:normal;font-variant:normal;font-weight:normal;font-stretch:normal;text-align:start;line-height:125%;writing-mode:lr-tb;text-anchor:start;fill:#a7a09a;fill-opacity:1;stroke:none;stroke-width:1px;stroke-linecap:butt;stroke-linejoin:miter;stroke-opacity:1;font-family:FreeSans;-inkscape-font-specification:FreeSans" />
        <path
           sodipodi:nodetypes="cccccccccccccccc"
           id="path2724"
           d="M 143.87457,58.439362 L 154.6733,58.439362 L 154.6733,69.917326 L 161.86767,58.439362 L 173.69948,58.439362 L 164.68741,71.694506 L 172.21537,82.787598 L 175.36794,82.787598 L 175.36794,91.184536 L 166.58947,91.184536 L 166.58947,87.68222 L 162.77921,87.68222 L 154.6733,75.890927 L 154.6733,87.68222 L 143.87457,87.68222 L 143.87457,58.439362"
           style="font-size:41.4851799px;font-style:normal;font-variant:normal;font-weight:normal;font-stretch:normal;text-align:start;line-height:125%;writing-mode:lr-tb;text-anchor:start;fill:#a7a09a;fill-opacity:1;stroke:none;stroke-width:1px;stroke-linecap:butt;stroke-linejoin:miter;stroke-opacity:1;font-family:FreeSans;-inkscape-font-specification:FreeSans" />
        <path
           id="path2726"
           d="M 228.9975,57.986286 L 243.24615,57.986286 L 248.74479,76.055026 L 254.21952,57.986286 L 268.42035,57.986286 L 268.42035,87.68222 L 259.57471,87.68222 L 259.57471,65.035526 L 252.71338,87.68222 L 244.70448,87.68222 L 237.86705,65.035526 L 237.86705,87.68222 L 228.9975,87.68222 L 228.9975,57.986286"
           style="font-size:41.4851799px;font-style:normal;font-variant:normal;font-weight:normal;font-stretch:normal;text-align:start;line-height:125%;writing-mode:lr-tb;text-anchor:start;fill:#a7a09a;fill-opacity:1;stroke:none;stroke-width:1px;stroke-linecap:butt;stroke-linejoin:miter;stroke-opacity:1;font-family:FreeSans;-inkscape-font-specification:FreeSans" />
        <path
           sodipodi:nodetypes="ccccccccccccc"
           id="path2728"
           d="M 299.75564,66.296924 L 308.65287,66.296924 L 308.65287,73.235269 L 314.48393,73.235269 L 314.48393,66.296924 L 323.38117,66.296924 L 323.38117,87.167691 L 314.48393,87.167691 L 314.48393,78.353518 L 308.65287,78.353518 L 308.65287,87.167691 L 299.75564,87.167691 L 299.75564,66.296924"
           style="font-size:40.1278038px;font-style:normal;font-variant:normal;font-weight:normal;font-stretch:normal;text-align:start;line-height:125%;writing-mode:lr-tb;text-anchor:start;fill:#a7a09a;fill-opacity:1;stroke:none;stroke-width:1px;stroke-linecap:butt;stroke-linejoin:miter;stroke-opacity:1;font-family:FreeSans;-inkscape-font-specification:FreeSans" />
        <path
           id="path2730"
           d="M 377.91823,66.296924 L 377.91823,87.167691 L 370.5427,87.167691 L 370.5427,76.061461 L 363.10536,87.167691 L 355.44139,87.167691 L 355.44139,66.296924 L 362.81693,66.296924 L 362.81693,77.403153 L 370.25427,66.296924 L 377.91823,66.296924"
           style="font-size:40.1278038px;font-style:normal;font-variant:normal;font-weight:normal;font-stretch:normal;text-align:start;line-height:125%;writing-mode:lr-tb;text-anchor:start;fill:#a7a09a;fill-opacity:1;stroke:none;stroke-width:1px;stroke-linecap:butt;stroke-linejoin:miter;stroke-opacity:1;font-family:FreeSans;-inkscape-font-specification:FreeSans" />
        <path
           id="path2732"
           d="M 358.9503,56.659072 L 362.24433,56.659072 C 362.41324,57.631421 362.87394,58.374549 363.62643,58.888458 C 364.39426,59.402427 365.41549,59.659397 366.69011,59.659367 C 367.96471,59.659397 368.97825,59.402427 369.73076,58.888458 C 370.49857,58.374549 370.96696,57.631421 371.1359,56.659072 L 374.42993,56.659072 C 374.33776,58.6593 373.62367,60.194171 372.28766,61.263692 C 370.9516,62.319377 369.08575,62.847207 366.69011,62.84718 C 364.29443,62.847207 362.42859,62.319377 361.09257,61.263692 C 359.75652,60.194171 359.04242,58.6593 358.9503,56.659072"
           style="font-size:40.1278038px;font-style:normal;font-variant:normal;font-weight:normal;font-stretch:normal;text-align:start;line-height:125%;writing-mode:lr-tb;text-anchor:start;fill:#a7a09a;fill-opacity:1;stroke:none;stroke-width:1px;stroke-linecap:butt;stroke-linejoin:miter;stroke-opacity:1;font-family:FreeSans;-inkscape-font-specification:FreeSans" />
        <path
           sodipodi:nodetypes="ccccccc"
           id="path2734"
           d="M 383.35556,87.167691 L 383.35556,58.346213 L 407.21433,58.346213 L 407.21433,65.768885 L 394.28735,65.768885 L 394.28735,87.167691 L 383.35556,87.167691"
           style="font-size:40.1278038px;font-style:normal;font-variant:normal;font-weight:normal;font-stretch:normal;text-align:start;line-height:125%;writing-mode:lr-tb;text-anchor:start;fill:#a7a09a;fill-opacity:1;stroke:none;stroke-width:1px;stroke-linecap:butt;stroke-linejoin:miter;stroke-opacity:1;font-family:FreeSans;-inkscape-font-specification:FreeSans" />
        <path
           sodipodi:nodetypes="cccccccccccccccc"
           id="path2736"
           d="M 440.79409,74.16073 C 442.06312,74.164523 443.32228,74.274711 444.49646,74.176512 C 448.98824,73.785582 448.92314,70.314636 444.39072,70.030956 C 442.12515,70.03434 439.10078,70.852926 437.57523,71.514615 L 437.57523,66.688251 C 440.73413,66.096119 444.51949,65.652653 447.85725,65.728174 C 452.03018,65.928055 457.6605,66.126942 458.12201,71.272366 C 458.12199,73.732148 456.61805,75.278819 453.61017,75.912385 C 457.00261,76.670202 458.69885,78.446701 458.69887,81.241884 C 458.48605,86.726926 452.59541,87.256921 448.26136,87.683731 C 444.44831,87.963504 441.15469,87.565417 437.52453,86.664556 L 437.52453,80.521402 C 439.99487,81.390314 442.66652,82.644522 445.38151,82.214997 C 449.71219,81.407207 449.45569,78.805584 445.17331,78.211119 C 443.71601,78.097819 442.10199,78.27898 440.79409,78.27898 L 440.79409,74.16073"
           style="font-size:40.1278038px;font-style:normal;font-variant:normal;font-weight:normal;font-stretch:normal;text-align:start;line-height:125%;writing-mode:lr-tb;text-anchor:start;fill:#a7a09a;fill-opacity:1;stroke:none;stroke-width:1px;stroke-linecap:butt;stroke-linejoin:miter;stroke-opacity:1;font-family:FreeSans;-inkscape-font-specification:FreeSans" />
        <path
           sodipodi:nodetypes="cccccccscsccccccccccc"
           style="font-size:40.1278038px;font-style:normal;font-variant:normal;font-weight:normal;font-stretch:normal;text-align:start;line-height:125%;writing-mode:lr-tb;text-anchor:start;fill:#a7a09a;fill-opacity:1;stroke:none;stroke-width:1px;stroke-linecap:butt;stroke-linejoin:miter;stroke-opacity:1;font-family:FreeSans;-inkscape-font-specification:FreeSans"
           d="M 421.75,65.78125 C 418.53711,65.748559 415.3605,66.221921 412.21875,66.84375 L 412.21875,71.9375 C 414.77933,70.642477 417.58396,70.328656 420.40625,70.21875 C 422.6964,70.036054 426.08889,70.873059 426.09375,73.8125 L 421.75,73.8125 C 417.76692,73.812514 414.83668,74.38834 412.96875,75.53125 C 411.11456,76.674183 410.18749,78.458909 410.1875,80.90625 C 410.1875,82.918792 410.95415,84.545352 412.4375,85.8125 C 413.93458,87.067231 415.86016,87.718752 418.25,87.71875 C 420.02176,87.718749 421.51386,87.415207 422.75,86.84375 C 423.9861,86.259866 425.10485,85.329652 426.09375,84.0625 L 426.09375,87.15625 L 434.53125,87.15625 L 434.53125,75.25 C 434.53122,71.908207 433.60417,69.509614 431.75,68.03125 C 429.90953,66.540501 425.91159,65.781272 421.75,65.78125 z M 426.09375,77.78125 C 426.2513,79.426449 425.35145,80.438277 424.39022,81.714537 C 422.07486,83.141634 420.02117,82.589199 419.78031,80.265217 C 420.08166,77.535011 422.66193,77.455312 426.09375,77.78125 z"
           id="path2738" />
        <path
           style="font-size:40.1278038px;font-style:normal;font-variant:normal;font-weight:normal;font-stretch:normal;text-align:start;line-height:125%;writing-mode:lr-tb;text-anchor:start;fill:#a7a09a;fill-opacity:1;stroke:none;stroke-width:1px;stroke-linecap:butt;stroke-linejoin:miter;stroke-opacity:1;font-family:FreeSans;-inkscape-font-specification:FreeSans"
           d="M 207.79409,74.16073 C 209.06312,74.164523 210.32228,74.274711 211.49646,74.176512 C 215.98824,73.785582 215.92314,70.314636 211.39072,70.030956 C 209.12515,70.03434 206.10078,70.852926 204.57523,71.514615 L 204.57523,66.688251 C 207.73413,66.096119 211.51949,65.652653 214.85725,65.728174 C 219.03018,65.928055 224.6605,66.126942 225.12201,71.272366 C 225.12199,73.732148 223.61805,75.278819 220.61017,75.912385 C 224.00261,76.670202 225.69885,78.446701 225.69887,81.241884 C 225.48605,86.726926 219.59541,87.256921 215.26136,87.683731 C 211.44831,87.963504 208.15469,87.565417 204.52453,86.664556 L 204.52453,80.521402 C 206.99487,81.390314 209.66652,82.644522 212.38151,82.214997 C 216.71219,81.407207 216.45569,78.805584 212.17331,78.211119 C 210.71601,78.097819 209.10199,78.27898 207.79409,78.27898 L 207.79409,74.16073"
           id="path2740"
           sodipodi:nodetypes="cccccccccccccccc" />
        <path
           id="path2742"
           d="M 188.75,65.78125 C 185.53711,65.748559 182.3605,66.221921 179.21875,66.84375 L 179.21875,71.9375 C 181.77933,70.642477 184.58396,70.328656 187.40625,70.21875 C 189.6964,70.036054 193.08889,70.873059 193.09375,73.8125 L 188.75,73.8125 C 184.76692,73.812514 181.83668,74.38834 179.96875,75.53125 C 178.11456,76.674183 177.18749,78.458909 177.1875,80.90625 C 177.1875,82.918792 177.95415,84.545352 179.4375,85.8125 C 180.93458,87.067231 182.86016,87.718752 185.25,87.71875 C 187.02176,87.718749 188.51386,87.415207 189.75,86.84375 C 190.9861,86.259866 192.10485,85.329652 193.09375,84.0625 L 193.09375,87.15625 L 201.53125,87.15625 L 201.53125,75.25 C 201.53122,71.908207 200.60417,69.509614 198.75,68.03125 C 196.90953,66.540501 192.91159,65.781272 188.75,65.78125 z M 193.09375,77.78125 C 193.2513,79.426449 192.35145,80.438277 191.39022,81.714537 C 189.07486,83.141634 187.02117,82.589199 186.78031,80.265217 C 187.08166,77.535011 189.66193,77.455312 193.09375,77.78125 z"
           style="font-size:40.1278038px;font-style:normal;font-variant:normal;font-weight:normal;font-stretch:normal;text-align:start;line-height:125%;writing-mode:lr-tb;text-anchor:start;fill:#a7a09a;fill-opacity:1;stroke:none;stroke-width:1px;stroke-linecap:butt;stroke-linejoin:miter;stroke-opacity:1;font-family:FreeSans;-inkscape-font-specification:FreeSans"
           sodipodi:nodetypes="cccccccscsccccccccccc" />
        <path
           sodipodi:nodetypes="cccccccccccccccccccccccccccccccccccccccsssssssccssssssscccccccccccccccccccccccccccccccccsssssssccssssssscccsssssssccssssssscccccccccccccccccsssccccccccssscccccccccccccccccccccccccccccccccccc"
           id="path2744"
           d="M 142.97289,93.887895 L 144.92913,93.887895 L 147.39946,98.546488 L 147.39946,93.887895 L 149.06,93.887895 L 149.06,100.68016 L 147.10375,100.68016 L 144.63342,96.021567 L 144.63342,100.68016 L 142.97289,100.68016 L 142.97289,93.887895 M 155.90144,99.442722 L 153.16269,99.442722 L 152.7305,100.68016 L 150.96988,100.68016 L 153.4857,93.887895 L 155.57388,93.887895 L 158.0897,100.68016 L 156.32908,100.68016 L 155.90144,99.442722 M 153.59943,98.182536 L 155.46014,98.182536 L 154.53206,95.480187 L 153.59943,98.182536 M 159.07423,93.859236 L 165.33422,93.859236 L 165.33422,95.183113 L 163.08226,95.183113 L 163.08226,100.6515 L 161.33074,100.6515 L 161.33074,95.183113 L 159.07423,95.183113 L 159.07423,93.859236 M 167.02776,93.859236 L 168.77928,93.859236 L 168.77928,100.6515 L 167.02776,100.6515 L 167.02776,93.859236 M 174.29987,95.12852 C 173.76607,95.128526 173.35207,95.325667 173.05788,95.719943 C 172.76368,96.11423 172.61658,96.669257 172.61659,97.385027 C 172.61658,98.09777 172.76368,98.651281 173.05788,99.045561 C 173.35207,99.439844 173.76607,99.636985 174.29987,99.636984 C 174.83669,99.636985 175.2522,99.439844 175.5464,99.045561 C 175.84059,98.651281 175.98769,98.09777 175.9877,97.385027 C 175.98769,96.669257 175.84059,96.11423 175.5464,95.719943 C 175.2522,95.325667 174.83669,95.128526 174.29987,95.12852 M 174.29987,93.859236 C 175.39172,93.859242 176.24701,94.171635 176.86573,94.796414 C 177.48444,95.421204 177.7938,96.284074 177.79381,97.385027 C 177.7938,98.482953 177.48444,99.344306 176.86573,99.96909 C 176.24701,100.59388 175.39172,100.90627 174.29987,100.90627 C 173.21104,100.90627 172.35575,100.59388 171.734,99.96909 C 171.11528,99.344306 170.80592,98.482953 170.80592,97.385027 C 170.80592,96.284074 171.11528,95.421204 171.734,94.796414 C 172.35575,94.171635 173.21104,93.859242 174.29987,93.859236 M 180.35182,93.859236 L 182.30807,93.859236 L 184.77839,98.517829 L 184.77839,93.859236 L 186.43893,93.859236 L 186.43893,100.6515 L 184.48268,100.6515 L 182.01235,95.992908 L 182.01235,100.6515 L 180.35182,100.6515 L 180.35182,93.859236 M 193.22177,99.414063 L 190.48302,99.414063 L 190.05083,100.6515 L 188.29021,100.6515 L 190.80603,93.859236 L 192.89421,93.859236 L 195.41003,100.6515 L 193.64941,100.6515 L 193.22177,99.414063 M 190.91977,98.153877 L 192.78047,98.153877 L 191.85239,95.451528 L 190.91977,98.153877 M 197.34676,93.859236 L 199.09828,93.859236 L 199.09828,99.327624 L 202.17368,99.327624 L 202.17368,100.6515 L 197.34676,100.6515 L 197.34676,93.859236 M 218.05023,100.30711 C 217.72873,100.47392 217.39359,100.59979 217.04481,100.68471 C 216.69602,100.76963 216.33206,100.81209 215.95295,100.81209 C 214.82166,100.81209 213.92543,100.49667 213.26425,99.865817 C 212.60307,99.231934 212.27248,98.373613 212.27248,97.290852 C 212.27248,96.205064 212.60307,95.346743 213.26425,94.715887 C 213.92543,94.082009 214.82166,93.765067 215.95295,93.765061 C 216.33206,93.765067 216.69602,93.807529 217.04481,93.892444 C 217.39359,93.977373 217.72873,94.10324 218.05023,94.270045 L 218.05023,95.675812 C 217.7257,95.454413 217.40572,95.292151 217.0903,95.189025 C 216.77487,95.085911 216.44277,95.034351 216.09398,95.034345 C 215.46919,95.034351 214.97786,95.234525 214.61998,95.634867 C 214.26209,96.03522 214.08314,96.587214 214.08315,97.290852 C 214.08314,97.991463 214.26209,98.541941 214.61998,98.942287 C 214.97786,99.342636 215.46919,99.54281 216.09398,99.542809 C 216.44277,99.54281 216.77487,99.49125 217.0903,99.388129 C 217.40572,99.28501 217.7257,99.122748 218.05023,98.901342 L 218.05023,100.30711 M 223.21235,95.12852 C 222.67855,95.128526 222.26456,95.325667 221.97037,95.719943 C 221.67617,96.11423 221.52907,96.669257 221.52907,97.385027 C 221.52907,98.09777 221.67617,98.651281 221.97037,99.045561 C 222.26456,99.439844 222.67855,99.636985 223.21235,99.636984 C 223.74918,99.636985 224.16469,99.439844 224.45889,99.045561 C 224.75308,98.651281 224.90018,98.09777 224.90018,97.385027 C 224.90018,96.669257 224.75308,96.11423 224.45889,95.719943 C 224.16469,95.325667 223.74918,95.128526 223.21235,95.12852 M 223.21235,93.859236 C 224.30421,93.859242 225.15949,94.171635 225.77822,94.796414 C 226.39693,95.421204 226.70629,96.284074 226.7063,97.385027 C 226.70629,98.482953 226.39693,99.344306 225.77822,99.96909 C 225.15949,100.59388 224.30421,100.90627 223.21235,100.90627 C 222.12353,100.90627 221.26824,100.59388 220.64649,99.96909 C 220.02777,99.344306 219.71841,98.482953 219.71841,97.385027 C 219.71841,96.284074 220.02777,95.421204 220.64649,94.796414 C 221.26824,94.171635 222.12353,93.859242 223.21235,93.859236 M 229.07518,93.859236 L 231.30439,93.859236 L 232.85119,97.494212 L 234.40708,93.859236 L 236.63174,93.859236 L 236.63174,100.6515 L 234.97576,100.6515 L 234.97576,95.683548 L 233.41076,99.345821 L 232.30071,99.345821 L 230.73571,95.683548 L 230.73571,100.6515 L 229.07518,100.6515 L 229.07518,93.859236 M 239.05869,93.859236 L 241.96576,93.859236 C 242.83014,93.859242 243.49284,94.051834 243.95385,94.43701 C 244.41789,94.819166 244.64991,95.365095 244.64991,96.074797 C 244.64991,96.787542 244.41789,97.336503 243.95385,97.721683 C 243.49284,98.103836 242.83014,98.294911 241.96576,98.294908 L 240.81021,98.294908 L 240.81021,100.6515 L 239.05869,100.6515 L 239.05869,93.859236 M 240.81021,95.12852 L 240.81021,97.025623 L 241.77924,97.025623 C 242.11892,97.025627 242.38127,96.943738 242.56628,96.779955 C 242.75129,96.613148 242.84379,96.378095 242.8438,96.074797 C 242.84379,95.771508 242.75129,95.537972 242.56628,95.374188 C 242.38127,95.210415 242.11892,95.128526 241.77924,95.12852 L 240.81021,95.12852 M 250.79339,99.442722 L 248.05465,99.442722 L 247.62245,100.68016 L 245.86183,100.68016 L 248.37765,93.887895 L 250.46583,93.887895 L 252.98165,100.68016 L 251.22103,100.68016 L 250.79339,99.442722 M 248.49139,98.182536 L 250.3521,98.182536 L 249.42402,95.480187 L 248.49139,98.182536 M 254.87789,93.887895 L 256.83413,93.887895 L 259.30446,98.546488 L 259.30446,93.887895 L 260.96499,93.887895 L 260.96499,100.68016 L 259.00875,100.68016 L 256.53842,96.021567 L 256.53842,100.68016 L 254.87789,100.68016 L 254.87789,93.887895 M 262.7384,93.887895 L 264.6537,93.887895 L 266.2005,96.30818 L 267.74729,93.887895 L 269.66714,93.887895 L 267.07853,97.818583 L 267.07853,100.68016 L 265.32701,100.68016 L 265.32701,97.818583 L 262.7384,93.887895"
           style="font-size:9.31718731px;font-style:normal;font-variant:normal;font-weight:normal;font-stretch:normal;text-align:start;line-height:125%;writing-mode:lr-tb;text-anchor:start;fill:#a7a09a;fill-opacity:1;stroke:none;stroke-width:1px;stroke-linecap:butt;stroke-linejoin:miter;stroke-opacity:1;font-family:FreeSans;-inkscape-font-specification:FreeSans" />
        <path
           sodipodi:nodetypes="ccccccccccccccccccccsccccccccscccccccccccssscccccsccccccsccccccccccccccccccccccccccccccccccccccsssssssccsssssssccccccccccccccccccccccccccccccccccccccccccccccccccccccccccccccsccccscccssscccccccccsssssssccssssssscccssscccccsccccccscccccc"
           id="path2746"
           d="M 307.44141,93.859236 L 304.8528,97.789925 L 304.8528,98.663411 L 305.86277,98.663411 L 305.86277,99.536897 L 304.8528,99.536897 L 304.8528,100.6515 L 303.10128,100.6515 L 303.10128,99.536897 L 302.09586,99.536897 L 302.09586,98.663411 L 303.10128,98.663411 L 303.10128,97.789925 L 300.51266,93.859236 L 302.42796,93.859236 L 303.97476,96.279521 L 305.52156,93.859236 L 307.44141,93.859236 M 309.41768,100.6515 L 309.41768,99.327625 C 310.18804,99.242704 310.65056,98.950026 310.80525,98.449589 C 310.95992,97.946124 311.03726,96.843652 311.03727,95.142169 L 311.03727,93.859236 L 315.87329,93.859236 L 315.87329,100.6515 L 314.12176,100.6515 L 314.12176,95.183114 L 312.78879,95.183114 L 312.78879,95.59711 C 312.78878,97.259164 312.64169,98.475371 312.3475,99.245735 C 312.0533,100.01307 311.07669,100.48166 309.41768,100.6515 M 327.37725,93.859236 L 333.63724,93.859236 L 333.63724,95.183114 L 331.38528,95.183114 L 331.38528,100.6515 L 329.63376,100.6515 L 329.63376,95.183114 L 327.37725,95.183114 L 327.37725,93.859236 M 338.65548,99.459558 C 339.02246,99.459559 339.28784,99.391318 339.45163,99.254834 C 339.62753,99.106222 339.71549,98.890883 339.71549,98.608818 C 339.71549,98.332823 339.62753,98.122034 339.45163,97.976451 C 339.29088,97.839971 339.02549,97.77173 338.65548,97.771727 L 337.62731,97.771727 L 337.62731,99.459558 L 338.65548,99.459558 M 341.46701,98.554225 C 341.46701,99.276066 341.2456,99.797731 340.8028,100.11922 C 340.31449,100.47408 339.64118,100.6515 338.78286,100.6515 L 335.87579,100.6515 L 335.87579,93.859236 L 337.62731,93.859236 L 337.62731,96.44785 L 338.78286,96.44785 C 339.64118,96.447854 340.31449,96.62528 340.8028,96.98013 C 341.2456,97.301625 341.46701,97.826323 341.46701,98.554225 M 342.06754,93.859236 L 343.81906,93.859236 L 343.81906,100.6515 L 342.06754,100.6515 L 342.06754,93.859236 M 347.57017,93.859236 L 349.32169,93.859236 L 349.32169,96.661672 L 352.06044,93.859236 L 354.04398,93.859236 L 351.34618,96.611628 L 353.26148,99.327625 L 354.19411,99.327625 L 354.19411,100.6515 L 354.19411,102.11186 L 352.44714,102.11186 L 352.44714,100.6515 L 352.26516,100.6515 L 350.22248,97.758079 L 349.32169,98.677059 L 349.32169,100.6515 L 347.57017,100.6515 L 347.57017,93.859236 M 361.26066,93.859236 L 363.01218,93.859236 L 363.01218,96.661672 L 365.75092,93.859236 L 367.73447,93.859236 L 365.03667,96.611628 L 367.8846,100.6515 L 365.95565,100.6515 L 363.91296,97.758079 L 363.01218,98.677059 L 363.01218,100.6515 L 361.26066,100.6515 L 361.26066,93.859236 M 374.36643,95.128521 C 373.83263,95.128527 373.41864,95.325668 373.12445,95.719944 C 372.83025,96.114231 372.68315,96.669258 372.68315,97.385028 C 372.68315,98.097771 372.83025,98.651281 373.12445,99.045561 C 373.41864,99.439845 373.83263,99.636986 374.36643,99.636984 C 374.90326,99.636986 375.31877,99.439845 375.61297,99.045561 C 375.90716,98.651281 376.05426,98.097771 376.05426,97.385028 C 376.05426,96.669258 375.90716,96.114231 375.61297,95.719944 C 375.31877,95.325668 374.90326,95.128527 374.36643,95.128521 M 374.36643,93.859236 C 375.45829,93.859243 376.31357,94.171636 376.9323,94.796414 C 377.55101,95.421205 377.86037,96.284075 377.86038,97.385028 C 377.86037,98.482954 377.55101,99.344307 376.9323,99.969091 C 376.31357,100.59388 375.45829,100.90627 374.36643,100.90627 C 373.27761,100.90627 372.42232,100.59388 371.80057,99.969091 C 371.18185,99.344307 370.87249,98.482954 370.87249,97.385028 C 370.87249,96.284075 371.18185,95.421205 371.80057,94.796414 C 372.42232,94.171636 373.27761,93.859243 374.36643,93.859236 M 382.05345,93.859236 L 384.28266,93.859236 L 385.82946,97.494213 L 387.38535,93.859236 L 389.61001,93.859236 L 389.61001,100.6515 L 387.95403,100.6515 L 387.95403,95.683549 L 386.38903,99.345822 L 385.27898,99.345822 L 383.71398,95.683549 L 383.71398,100.6515 L 382.05345,100.6515 L 382.05345,93.859236 M 399.50233,93.859236 L 399.50233,100.6515 L 397.75081,100.6515 L 397.75081,95.183114 L 395.16674,95.183114 L 395.16674,100.6515 L 393.41522,100.6515 L 393.41522,93.859236 L 399.50233,93.859236 M 407.62293,99.414063 L 404.88419,99.414063 L 404.45199,100.6515 L 402.69137,100.6515 L 405.2072,93.859236 L 407.29537,93.859236 L 409.8112,100.6515 L 408.05058,100.6515 L 407.62293,99.414063 M 405.32093,98.153877 L 407.18164,98.153877 L 406.25356,95.451529 L 405.32093,98.153877 M 413.08571,93.859236 L 414.83723,93.859236 L 414.83723,96.44785 L 417.42129,96.44785 L 417.42129,93.859236 L 419.17281,93.859236 L 419.17281,100.6515 L 417.42129,100.6515 L 417.42129,97.771727 L 414.83723,97.771727 L 414.83723,100.6515 L 413.08571,100.6515 L 413.08571,93.859236 M 429.06057,93.859236 L 429.06057,100.6515 L 427.40004,100.6515 L 427.40004,95.992909 L 424.92971,100.6515 L 422.97346,100.6515 L 422.97346,93.859236 L 424.634,93.859236 L 424.634,98.51783 L 427.10433,93.859236 L 429.06057,93.859236 M 434.6719,95.992909 C 434.6719,96.305306 434.75076,96.529743 434.90847,96.666221 C 435.06922,96.802707 435.33308,96.870948 435.70007,96.870944 L 436.57356,96.870944 L 436.57356,95.128521 L 435.70007,95.128521 C 435.33308,95.128527 435.06922,95.195251 434.90847,95.328695 C 434.75076,95.46215 434.6719,95.683554 434.6719,95.992909 M 432.60192,100.6515 L 434.2943,97.767178 C 434.0638,97.636764 433.77718,97.409294 433.43446,97.084767 C 433.09174,96.757213 432.92038,96.367481 432.92038,95.915569 C 432.92038,95.236196 433.12814,94.72363 433.54365,94.377869 C 433.96219,94.032121 434.61882,93.859243 435.51354,93.859236 L 438.32508,93.859236 L 438.32508,100.6515 L 436.57356,100.6515 L 436.57356,98.081087 L 435.97758,98.081087 L 434.46718,100.6515 L 432.60192,100.6515 M 447.25085,100.2739 C 446.92935,100.44071 446.59421,100.56658 446.24543,100.6515 C 445.89663,100.73642 445.53268,100.77888 445.15357,100.77888 C 444.02228,100.77888 443.12605,100.46346 442.46487,99.832608 C 441.80369,99.198726 441.4731,98.340405 441.4731,97.257644 C 441.4731,96.171856 441.80369,95.313535 442.46487,94.682679 C 443.12605,94.048801 444.02228,93.731859 445.15357,93.731852 C 445.53268,93.731859 445.89663,93.77432 446.24543,93.859236 C 446.59421,93.944165 446.92935,94.070032 447.25085,94.236837 L 447.25085,95.642604 C 446.92632,95.421204 446.60634,95.258942 446.29092,95.155817 C 445.97549,95.052703 445.64338,95.001143 445.2946,95.001137 C 444.66981,95.001143 444.17848,95.201317 443.82059,95.601659 C 443.4627,96.002012 443.28376,96.554006 443.28376,97.257644 C 443.28376,97.958255 443.4627,98.508733 443.82059,98.909079 C 444.17848,99.309428 444.66981,99.509602 445.2946,99.5096 C 445.64338,99.509602 445.97549,99.458042 446.29092,99.354921 C 446.60634,99.251802 446.92632,99.08954 447.25085,98.868134 L 447.25085,100.2739 M 453.1214,99.459558 C 453.48839,99.459559 453.75377,99.391318 453.91755,99.254834 C 454.09346,99.106222 454.18141,98.890883 454.18142,98.608818 C 454.18141,98.332823 454.09346,98.122034 453.91755,97.976451 C 453.7568,97.839971 453.49142,97.77173 453.1214,97.771727 L 452.09324,97.771727 L 452.09324,99.459558 L 453.1214,99.459558 M 455.93294,98.554225 C 455.93293,99.276066 455.71153,99.797731 455.26872,100.11922 C 454.78042,100.47408 454.1071,100.6515 453.24879,100.6515 L 450.34172,100.6515 L 450.34172,93.859236 L 452.09324,93.859236 L 452.09324,96.44785 L 453.24879,96.44785 C 454.1071,96.447854 454.78042,96.62528 455.26872,96.98013 C 455.71153,97.301625 455.93293,97.826323 455.93294,98.554225 M 456.53346,93.859236 L 458.28498,93.859236 L 458.28498,100.6515 L 456.53346,100.6515 L 456.53346,93.859236"
           style="font-size:9.31718731px;font-style:normal;font-variant:normal;font-weight:normal;font-stretch:normal;text-align:start;line-height:125%;writing-mode:lr-tb;text-anchor:start;fill:#a7a09a;fill-opacity:1;stroke:none;stroke-width:1px;stroke-linecap:butt;stroke-linejoin:miter;stroke-opacity:1;font-family:FreeSans;-inkscape-font-specification:FreeSans" />
        <path
           style="font-size:9.31718731px;font-style:normal;font-variant:normal;font-weight:normal;font-stretch:normal;text-align:start;line-height:125%;writing-mode:lr-tb;text-anchor:start;fill:#a7a09a;fill-opacity:1;stroke:none;stroke-width:1px;stroke-linecap:butt;stroke-linejoin:miter;stroke-opacity:1;font-family:FreeSans;-inkscape-font-specification:FreeSans"
           d="M 319.00377,93.859236 L 325.26376,93.859236 L 325.26376,95.183114 L 323.0118,95.183114 L 323.0118,100.6515 L 321.26028,100.6515 L 321.26028,95.183114 L 319.00377,95.183114 L 319.00377,93.859236"
           id="path2748"
           sodipodi:nodetypes="ccccccccc" />
        <path
           id="path2750"
           d="M 338.75,65.78125 C 335.53711,65.748559 332.3605,66.221921 329.21875,66.84375 L 329.21875,71.9375 C 331.77933,70.642477 334.58396,70.328656 337.40625,70.21875 C 339.6964,70.036054 343.08889,70.873059 343.09375,73.8125 L 338.75,73.8125 C 334.76692,73.812514 331.83668,74.38834 329.96875,75.53125 C 328.11456,76.674183 327.18749,78.458909 327.1875,80.90625 C 327.1875,82.918792 327.95415,84.545352 329.4375,85.8125 C 330.93458,87.067231 332.86016,87.718752 335.25,87.71875 C 337.02176,87.718749 338.51386,87.415207 339.75,86.84375 C 340.9861,86.259866 342.10485,85.329652 343.09375,84.0625 L 343.09375,87.15625 L 351.53125,87.15625 L 351.53125,75.25 C 351.53122,71.908207 350.60417,69.509614 348.75,68.03125 C 346.90953,66.540501 342.91159,65.781272 338.75,65.78125 z M 343.09375,77.78125 C 343.2513,79.426449 342.35145,80.438277 341.39022,81.714537 C 339.07486,83.141634 337.02117,82.589199 336.78031,80.265217 C 337.08166,77.535011 339.66193,77.455312 343.09375,77.78125 z"
           style="font-size:40.1278038px;font-style:normal;font-variant:normal;font-weight:normal;font-stretch:normal;text-align:start;line-height:125%;writing-mode:lr-tb;text-anchor:start;fill:#a7a09a;fill-opacity:1;stroke:none;stroke-width:1px;stroke-linecap:butt;stroke-linejoin:miter;stroke-opacity:1;font-family:FreeSans;-inkscape-font-specification:FreeSans"
           sodipodi:nodetypes="cccccccscsccccccccccc" />
      </g>
      <path
         id="path2396"
         d="M 81.78125,33.96875 C 82.302119,39.089948 81.837676,45.187991 79.75,50.125 L 80.125,50.34375 C 80.259042,50.341595 80.396698,50.34375 80.53125,50.34375 C 94.118776,50.34375 105.125,61.349975 105.125,74.9375 C 105.125,78.275186 104.45531,81.471763 103.25,84.375 L 115.78125,95.90625 C 119.43563,89.772446 121.53125,82.591136 121.53125,74.9375 C 121.53125,52.717662 103.84004,34.636921 81.78125,33.96875 z M 64.875,37.03125 C 49.988784,43.186039 39.500001,57.836107 39.5,74.9375 C 39.5,91.097842 48.877029,105.06594 62.46875,111.75 L 62.46875,91.65625 C 60.891845,89.952421 59.548377,88.03487 58.5,85.9375 C 55.71651,81.018357 53.892704,73.307933 53.90625,65.15625 C 53.923299,54.898161 56.569091,44.102792 64.875,37.03125 z"
         style="fill:#000000;fill-opacity:1;fill-rule:nonzero;stroke:none;stroke-width:0.08791941;stroke-linecap:round;stroke-linejoin:round;stroke-miterlimit:4;stroke-dasharray:none;stroke-opacity:1" />
      <g
         transform="translate(90,18)"
         style="fill:#a7a09a;fill-opacity:1"
         id="g3315">
        <path
           sodipodi:nodetypes="cscc"
           id="path3317"
           d="M -25.034294,71.48932 C -33.358142,62.076833 -33.762009,51.560589 -31.455233,45.53846 C -27.107999,34.189457 -11.352161,29.002191 -8.980992,12.041936 C -8.35458,54.180132 -29.177058,39.851059 -25.034294,71.48932 z"
           style="fill:#a7a09a;fill-opacity:1;fill-rule:evenodd;stroke:none;stroke-width:1px;stroke-linecap:butt;stroke-linejoin:miter;stroke-opacity:1" />
        <path
           sodipodi:nodetypes="ccc"
           id="path3319"
           d="M -33.813443,45.402704 C -35.144606,19.30432 -13.536375,22.560373 -10.736821,0.25279248 C -7.073124,27.095834 -30.99685,29.999612 -33.813443,45.402704 z"
           style="fill:#a7a09a;fill-opacity:1;fill-rule:evenodd;stroke:none;stroke-width:1px;stroke-linecap:butt;stroke-linejoin:miter;stroke-opacity:1" />
      </g>
      <g
         transform="translate(90,16)"
         id="g3311">
        <path
           style="fill:#02aef0;fill-opacity:1;fill-rule:evenodd;stroke:none;stroke-width:1px;stroke-linecap:butt;stroke-linejoin:miter;stroke-opacity:1"
           d="M -25.034294,71.48932 C -33.358142,62.076833 -33.762009,51.560589 -31.455233,45.53846 C -27.107999,34.189457 -11.352161,29.002191 -8.980992,12.041936 C -8.35458,54.180132 -29.177058,39.851059 -25.034294,71.48932 z"
           id="path3172"
           sodipodi:nodetypes="cscc" />
        <path
           style="fill:#90d6f7;fill-opacity:1;fill-rule:evenodd;stroke:none;stroke-width:1px;stroke-linecap:butt;stroke-linejoin:miter;stroke-opacity:1"
           d="M -33.813443,45.402704 C -35.144606,19.30432 -13.536375,22.560373 -10.736821,0.25279248 C -7.073124,27.095834 -30.99685,29.999612 -33.813443,45.402704 z"
           id="path3174"
           sodipodi:nodetypes="ccc" />
      </g>
      <g
         id="g3321"
         transform="matrix(0.9534363,0,0,0.9534363,3.283951,20.992168)"
         style="fill:#a7a09a;fill-opacity:1">
        <g
           id="g3323"
           style="fill:#a7a09a;fill-opacity:1">
          <path
             sodipodi:type="arc"
             style="opacity:1;fill:#a7a09a;fill-opacity:1;fill-rule:nonzero;stroke:none;stroke-width:0.1;stroke-linecap:round;stroke-linejoin:round;stroke-miterlimit:4;stroke-dasharray:none;stroke-opacity:1"
             id="path3325"
             sodipodi:cx="-90.801491"
             sodipodi:cy="41.640213"
             sodipodi:rx="2.7591612"
             sodipodi:ry="2.7591612"
             d="M -88.04233,41.640213 A 2.7591612,2.7591612 0 1 1 -93.560652,41.640213 A 2.7591612,2.7591612 0 1 1 -88.04233,41.640213 z"
             transform="translate(158.3034,37.095391)" />
          <path
             transform="translate(158.3034,44.095391)"
             d="M -88.04233,41.640213 A 2.7591612,2.7591612 0 1 1 -93.560652,41.640213 A 2.7591612,2.7591612 0 1 1 -88.04233,41.640213 z"
             sodipodi:ry="2.7591612"
             sodipodi:rx="2.7591612"
             sodipodi:cy="41.640213"
             sodipodi:cx="-90.801491"
             id="path3327"
             style="opacity:1;fill:#a7a09a;fill-opacity:1;fill-rule:nonzero;stroke:none;stroke-width:0.1;stroke-linecap:round;stroke-linejoin:round;stroke-miterlimit:4;stroke-dasharray:none;stroke-opacity:1"
             sodipodi:type="arc" />
          <path
             sodipodi:type="arc"
             style="opacity:1;fill:#a7a09a;fill-opacity:1;fill-rule:nonzero;stroke:none;stroke-width:0.1;stroke-linecap:round;stroke-linejoin:round;stroke-miterlimit:4;stroke-dasharray:none;stroke-opacity:1"
             id="path3329"
             sodipodi:cx="-90.801491"
             sodipodi:cy="41.640213"
             sodipodi:rx="2.7591612"
             sodipodi:ry="2.7591612"
             d="M -88.04233,41.640213 A 2.7591612,2.7591612 0 1 1 -93.560652,41.640213 A 2.7591612,2.7591612 0 1 1 -88.04233,41.640213 z"
             transform="translate(158.3034,51.095391)" />
        </g>
        <g
           transform="translate(7,0)"
           id="g3331"
           style="fill:#a7a09a;fill-opacity:1">
          <path
             transform="translate(158.3034,37.095391)"
             d="M -88.04233,41.640213 A 2.7591612,2.7591612 0 1 1 -93.560652,41.640213 A 2.7591612,2.7591612 0 1 1 -88.04233,41.640213 z"
             sodipodi:ry="2.7591612"
             sodipodi:rx="2.7591612"
             sodipodi:cy="41.640213"
             sodipodi:cx="-90.801491"
             id="path3333"
             style="opacity:1;fill:#a7a09a;fill-opacity:1;fill-rule:nonzero;stroke:none;stroke-width:0.1;stroke-linecap:round;stroke-linejoin:round;stroke-miterlimit:4;stroke-dasharray:none;stroke-opacity:1"
             sodipodi:type="arc" />
          <path
             sodipodi:type="arc"
             style="opacity:1;fill:#a7a09a;fill-opacity:1;fill-rule:nonzero;stroke:none;stroke-width:0.1;stroke-linecap:round;stroke-linejoin:round;stroke-miterlimit:4;stroke-dasharray:none;stroke-opacity:1"
             id="path3335"
             sodipodi:cx="-90.801491"
             sodipodi:cy="41.640213"
             sodipodi:rx="2.7591612"
             sodipodi:ry="2.7591612"
             d="M -88.04233,41.640213 A 2.7591612,2.7591612 0 1 1 -93.560652,41.640213 A 2.7591612,2.7591612 0 1 1 -88.04233,41.640213 z"
             transform="translate(158.3034,44.095391)" />
          <path
             transform="translate(158.3034,51.095391)"
             d="M -88.04233,41.640213 A 2.7591612,2.7591612 0 1 1 -93.560652,41.640213 A 2.7591612,2.7591612 0 1 1 -88.04233,41.640213 z"
             sodipodi:ry="2.7591612"
             sodipodi:rx="2.7591612"
             sodipodi:cy="41.640213"
             sodipodi:cx="-90.801491"
             id="path3337"
             style="opacity:1;fill:#a7a09a;fill-opacity:1;fill-rule:nonzero;stroke:none;stroke-width:0.1;stroke-linecap:round;stroke-linejoin:round;stroke-miterlimit:4;stroke-dasharray:none;stroke-opacity:1"
             sodipodi:type="arc" />
        </g>
        <g
           id="g3339"
           transform="translate(14,0)"
           style="fill:#a7a09a;fill-opacity:1">
          <path
             sodipodi:type="arc"
             style="opacity:1;fill:#a7a09a;fill-opacity:1;fill-rule:nonzero;stroke:none;stroke-width:0.1;stroke-linecap:round;stroke-linejoin:round;stroke-miterlimit:4;stroke-dasharray:none;stroke-opacity:1"
             id="path3341"
             sodipodi:cx="-90.801491"
             sodipodi:cy="41.640213"
             sodipodi:rx="2.7591612"
             sodipodi:ry="2.7591612"
             d="M -88.04233,41.640213 A 2.7591612,2.7591612 0 1 1 -93.560652,41.640213 A 2.7591612,2.7591612 0 1 1 -88.04233,41.640213 z"
             transform="translate(158.3034,37.095391)" />
          <path
             transform="translate(158.3034,44.095391)"
             d="M -88.04233,41.640213 A 2.7591612,2.7591612 0 1 1 -93.560652,41.640213 A 2.7591612,2.7591612 0 1 1 -88.04233,41.640213 z"
             sodipodi:ry="2.7591612"
             sodipodi:rx="2.7591612"
             sodipodi:cy="41.640213"
             sodipodi:cx="-90.801491"
             id="path3343"
             style="opacity:1;fill:#a7a09a;fill-opacity:1;fill-rule:nonzero;stroke:none;stroke-width:0.1;stroke-linecap:round;stroke-linejoin:round;stroke-miterlimit:4;stroke-dasharray:none;stroke-opacity:1"
             sodipodi:type="arc" />
          <path
             sodipodi:type="arc"
             style="opacity:1;fill:#a7a09a;fill-opacity:1;fill-rule:nonzero;stroke:none;stroke-width:0.1;stroke-linecap:round;stroke-linejoin:round;stroke-miterlimit:4;stroke-dasharray:none;stroke-opacity:1"
             id="path3345"
             sodipodi:cx="-90.801491"
             sodipodi:cy="41.640213"
             sodipodi:rx="2.7591612"
             sodipodi:ry="2.7591612"
             d="M -88.04233,41.640213 A 2.7591612,2.7591612 0 1 1 -93.560652,41.640213 A 2.7591612,2.7591612 0 1 1 -88.04233,41.640213 z"
             transform="translate(158.3034,51.095391)" />
        </g>
        <g
           transform="translate(21,0)"
           id="g3347"
           style="fill:#a7a09a;fill-opacity:1">
          <path
             transform="translate(158.3034,37.095391)"
             d="M -88.04233,41.640213 A 2.7591612,2.7591612 0 1 1 -93.560652,41.640213 A 2.7591612,2.7591612 0 1 1 -88.04233,41.640213 z"
             sodipodi:ry="2.7591612"
             sodipodi:rx="2.7591612"
             sodipodi:cy="41.640213"
             sodipodi:cx="-90.801491"
             id="path3349"
             style="opacity:1;fill:#a7a09a;fill-opacity:1;fill-rule:nonzero;stroke:none;stroke-width:0.1;stroke-linecap:round;stroke-linejoin:round;stroke-miterlimit:4;stroke-dasharray:none;stroke-opacity:1"
             sodipodi:type="arc" />
          <path
             sodipodi:type="arc"
             style="opacity:1;fill:#a7a09a;fill-opacity:1;fill-rule:nonzero;stroke:none;stroke-width:0.1;stroke-linecap:round;stroke-linejoin:round;stroke-miterlimit:4;stroke-dasharray:none;stroke-opacity:1"
             id="path3351"
             sodipodi:cx="-90.801491"
             sodipodi:cy="41.640213"
             sodipodi:rx="2.7591612"
             sodipodi:ry="2.7591612"
             d="M -88.04233,41.640213 A 2.7591612,2.7591612 0 1 1 -93.560652,41.640213 A 2.7591612,2.7591612 0 1 1 -88.04233,41.640213 z"
             transform="translate(158.3034,44.095391)" />
          <path
             transform="translate(158.3034,51.095391)"
             d="M -88.04233,41.640213 A 2.7591612,2.7591612 0 1 1 -93.560652,41.640213 A 2.7591612,2.7591612 0 1 1 -88.04233,41.640213 z"
             sodipodi:ry="2.7591612"
             sodipodi:rx="2.7591612"
             sodipodi:cy="41.640213"
             sodipodi:cx="-90.801491"
             id="path3353"
             style="opacity:1;fill:#a7a09a;fill-opacity:1;fill-rule:nonzero;stroke:none;stroke-width:0.1;stroke-linecap:round;stroke-linejoin:round;stroke-miterlimit:4;stroke-dasharray:none;stroke-opacity:1"
             sodipodi:type="arc" />
        </g>
        <g
           id="g3355"
           transform="translate(28,0)"
           style="fill:#a7a09a;fill-opacity:1">
          <path
             sodipodi:type="arc"
             style="opacity:1;fill:#a7a09a;fill-opacity:1;fill-rule:nonzero;stroke:none;stroke-width:0.1;stroke-linecap:round;stroke-linejoin:round;stroke-miterlimit:4;stroke-dasharray:none;stroke-opacity:1"
             id="path3357"
             sodipodi:cx="-90.801491"
             sodipodi:cy="41.640213"
             sodipodi:rx="2.7591612"
             sodipodi:ry="2.7591612"
             d="M -88.04233,41.640213 A 2.7591612,2.7591612 0 1 1 -93.560652,41.640213 A 2.7591612,2.7591612 0 1 1 -88.04233,41.640213 z"
             transform="translate(158.3034,37.095391)" />
          <path
             transform="translate(158.3034,44.095391)"
             d="M -88.04233,41.640213 A 2.7591612,2.7591612 0 1 1 -93.560652,41.640213 A 2.7591612,2.7591612 0 1 1 -88.04233,41.640213 z"
             sodipodi:ry="2.7591612"
             sodipodi:rx="2.7591612"
             sodipodi:cy="41.640213"
             sodipodi:cx="-90.801491"
             id="path3359"
             style="opacity:1;fill:#a7a09a;fill-opacity:1;fill-rule:nonzero;stroke:none;stroke-width:0.1;stroke-linecap:round;stroke-linejoin:round;stroke-miterlimit:4;stroke-dasharray:none;stroke-opacity:1"
             sodipodi:type="arc" />
          <path
             sodipodi:type="arc"
             style="opacity:1;fill:#a7a09a;fill-opacity:1;fill-rule:nonzero;stroke:none;stroke-width:0.1;stroke-linecap:round;stroke-linejoin:round;stroke-miterlimit:4;stroke-dasharray:none;stroke-opacity:1"
             id="path3361"
             sodipodi:cx="-90.801491"
             sodipodi:cy="41.640213"
             sodipodi:rx="2.7591612"
             sodipodi:ry="2.7591612"
             d="M -88.04233,41.640213 A 2.7591612,2.7591612 0 1 1 -93.560652,41.640213 A 2.7591612,2.7591612 0 1 1 -88.04233,41.640213 z"
             transform="translate(158.3034,51.095391)" />
        </g>
        <path
           sodipodi:type="arc"
           style="fill:#a7a09a;fill-opacity:1;fill-rule:nonzero;stroke:none;stroke-width:0.1;stroke-linecap:round;stroke-linejoin:round;stroke-miterlimit:4;stroke-dasharray:none;stroke-opacity:1"
           id="path3363"
           sodipodi:cx="-90.801491"
           sodipodi:cy="41.640213"
           sodipodi:rx="2.7591612"
           sodipodi:ry="2.7591612"
           d="M -88.04233,41.640213 A 2.7591612,2.7591612 0 1 1 -93.560652,41.640213 A 2.7591612,2.7591612 0 1 1 -88.04233,41.640213 z"
           transform="translate(193.3034,37.095391)" />
        <path
           transform="translate(193.3034,44.095391)"
           d="M -88.04233,41.640213 A 2.7591612,2.7591612 0 1 1 -93.560652,41.640213 A 2.7591612,2.7591612 0 1 1 -88.04233,41.640213 z"
           sodipodi:ry="2.7591612"
           sodipodi:rx="2.7591612"
           sodipodi:cy="41.640213"
           sodipodi:cx="-90.801491"
           id="path3365"
           style="fill:#a7a09a;fill-opacity:1;fill-rule:nonzero;stroke:none;stroke-width:0.1;stroke-linecap:round;stroke-linejoin:round;stroke-miterlimit:4;stroke-dasharray:none;stroke-opacity:1"
           sodipodi:type="arc" />
        <path
           sodipodi:type="arc"
           style="fill:#a7a09a;fill-opacity:1;fill-rule:nonzero;stroke:none;stroke-width:0.1;stroke-linecap:round;stroke-linejoin:round;stroke-miterlimit:4;stroke-dasharray:none;stroke-opacity:1"
           id="path3367"
           sodipodi:cx="-90.801491"
           sodipodi:cy="41.640213"
           sodipodi:rx="2.7591612"
           sodipodi:ry="2.7591612"
           d="M -88.04233,41.640213 A 2.7591612,2.7591612 0 1 1 -93.560652,41.640213 A 2.7591612,2.7591612 0 1 1 -88.04233,41.640213 z"
           transform="translate(193.3034,51.095391)" />
        <path
           transform="translate(193.3034,30.095391)"
           d="M -88.04233,41.640213 A 2.7591612,2.7591612 0 1 1 -93.560652,41.640213 A 2.7591612,2.7591612 0 1 1 -88.04233,41.640213 z"
           sodipodi:ry="2.7591612"
           sodipodi:rx="2.7591612"
           sodipodi:cy="41.640213"
           sodipodi:cx="-90.801491"
           id="path3369"
           style="fill:#a7a09a;fill-opacity:1;fill-rule:nonzero;stroke:none;stroke-width:0.1;stroke-linecap:round;stroke-linejoin:round;stroke-miterlimit:4;stroke-dasharray:none;stroke-opacity:1"
           sodipodi:type="arc" />
        <path
           transform="translate(193.3034,58.095391)"
           d="M -88.04233,41.640213 A 2.7591612,2.7591612 0 1 1 -93.560652,41.640213 A 2.7591612,2.7591612 0 1 1 -88.04233,41.640213 z"
           sodipodi:ry="2.7591612"
           sodipodi:rx="2.7591612"
           sodipodi:cy="41.640213"
           sodipodi:cx="-90.801491"
           id="path3371"
           style="fill:#a7a09a;fill-opacity:1;fill-rule:nonzero;stroke:none;stroke-width:0.1;stroke-linecap:round;stroke-linejoin:round;stroke-miterlimit:4;stroke-dasharray:none;stroke-opacity:1"
           sodipodi:type="arc" />
        <path
           transform="translate(200.3034,37.095391)"
           d="M -88.04233,41.640213 A 2.7591612,2.7591612 0 1 1 -93.560652,41.640213 A 2.7591612,2.7591612 0 1 1 -88.04233,41.640213 z"
           sodipodi:ry="2.7591612"
           sodipodi:rx="2.7591612"
           sodipodi:cy="41.640213"
           sodipodi:cx="-90.801491"
           id="path3373"
           style="fill:#a7a09a;fill-opacity:1;fill-rule:nonzero;stroke:none;stroke-width:0.1;stroke-linecap:round;stroke-linejoin:round;stroke-miterlimit:4;stroke-dasharray:none;stroke-opacity:1"
           sodipodi:type="arc" />
        <path
           sodipodi:type="arc"
           style="fill:#a7a09a;fill-opacity:1;fill-rule:nonzero;stroke:none;stroke-width:0.1;stroke-linecap:round;stroke-linejoin:round;stroke-miterlimit:4;stroke-dasharray:none;stroke-opacity:1"
           id="path3375"
           sodipodi:cx="-90.801491"
           sodipodi:cy="41.640213"
           sodipodi:rx="2.7591612"
           sodipodi:ry="2.7591612"
           d="M -88.04233,41.640213 A 2.7591612,2.7591612 0 1 1 -93.560652,41.640213 A 2.7591612,2.7591612 0 1 1 -88.04233,41.640213 z"
           transform="translate(200.3034,44.095391)" />
        <path
           transform="translate(200.3034,51.095391)"
           d="M -88.04233,41.640213 A 2.7591612,2.7591612 0 1 1 -93.560652,41.640213 A 2.7591612,2.7591612 0 1 1 -88.04233,41.640213 z"
           sodipodi:ry="2.7591612"
           sodipodi:rx="2.7591612"
           sodipodi:cy="41.640213"
           sodipodi:cx="-90.801491"
           id="path3377"
           style="fill:#a7a09a;fill-opacity:1;fill-rule:nonzero;stroke:none;stroke-width:0.1;stroke-linecap:round;stroke-linejoin:round;stroke-miterlimit:4;stroke-dasharray:none;stroke-opacity:1"
           sodipodi:type="arc" />
        <path
           transform="translate(207.3034,44.095391)"
           d="M -88.04233,41.640213 A 2.7591612,2.7591612 0 1 1 -93.560652,41.640213 A 2.7591612,2.7591612 0 1 1 -88.04233,41.640213 z"
           sodipodi:ry="2.7591612"
           sodipodi:rx="2.7591612"
           sodipodi:cy="41.640213"
           sodipodi:cx="-90.801491"
           id="path3379"
           style="fill:#a7a09a;fill-opacity:1;fill-rule:nonzero;stroke:none;stroke-width:0.1;stroke-linecap:round;stroke-linejoin:round;stroke-miterlimit:4;stroke-dasharray:none;stroke-opacity:1"
           sodipodi:type="arc" />
      </g>
      <g
         style="fill:#02aef0;fill-opacity:1"
         transform="matrix(0.9534363,0,0,0.9534363,3.283951,19.992168)"
         id="g3276">
        <g
           style="fill:#02aef0;fill-opacity:1"
           id="g3184">
          <path
             transform="translate(158.3034,37.095391)"
             d="M -88.04233,41.640213 A 2.7591612,2.7591612 0 1 1 -93.560652,41.640213 A 2.7591612,2.7591612 0 1 1 -88.04233,41.640213 z"
             sodipodi:ry="2.7591612"
             sodipodi:rx="2.7591612"
             sodipodi:cy="41.640213"
             sodipodi:cx="-90.801491"
             id="path3176"
             style="opacity:1;fill:#02aef0;fill-opacity:1;fill-rule:nonzero;stroke:none;stroke-width:0.1;stroke-linecap:round;stroke-linejoin:round;stroke-miterlimit:4;stroke-dasharray:none;stroke-opacity:1"
             sodipodi:type="arc" />
          <path
             sodipodi:type="arc"
             style="opacity:1;fill:#02aef0;fill-opacity:1;fill-rule:nonzero;stroke:none;stroke-width:0.1;stroke-linecap:round;stroke-linejoin:round;stroke-miterlimit:4;stroke-dasharray:none;stroke-opacity:1"
             id="path3180"
             sodipodi:cx="-90.801491"
             sodipodi:cy="41.640213"
             sodipodi:rx="2.7591612"
             sodipodi:ry="2.7591612"
             d="M -88.04233,41.640213 A 2.7591612,2.7591612 0 1 1 -93.560652,41.640213 A 2.7591612,2.7591612 0 1 1 -88.04233,41.640213 z"
             transform="translate(158.3034,44.095391)" />
          <path
             transform="translate(158.3034,51.095391)"
             d="M -88.04233,41.640213 A 2.7591612,2.7591612 0 1 1 -93.560652,41.640213 A 2.7591612,2.7591612 0 1 1 -88.04233,41.640213 z"
             sodipodi:ry="2.7591612"
             sodipodi:rx="2.7591612"
             sodipodi:cy="41.640213"
             sodipodi:cx="-90.801491"
             id="path3182"
             style="opacity:1;fill:#02aef0;fill-opacity:1;fill-rule:nonzero;stroke:none;stroke-width:0.1;stroke-linecap:round;stroke-linejoin:round;stroke-miterlimit:4;stroke-dasharray:none;stroke-opacity:1"
             sodipodi:type="arc" />
        </g>
        <g
           style="fill:#02aef0;fill-opacity:1"
           id="g3189"
           transform="translate(7,0)">
          <path
             sodipodi:type="arc"
             style="opacity:1;fill:#02aef0;fill-opacity:1;fill-rule:nonzero;stroke:none;stroke-width:0.1;stroke-linecap:round;stroke-linejoin:round;stroke-miterlimit:4;stroke-dasharray:none;stroke-opacity:1"
             id="path3191"
             sodipodi:cx="-90.801491"
             sodipodi:cy="41.640213"
             sodipodi:rx="2.7591612"
             sodipodi:ry="2.7591612"
             d="M -88.04233,41.640213 A 2.7591612,2.7591612 0 1 1 -93.560652,41.640213 A 2.7591612,2.7591612 0 1 1 -88.04233,41.640213 z"
             transform="translate(158.3034,37.095391)" />
          <path
             transform="translate(158.3034,44.095391)"
             d="M -88.04233,41.640213 A 2.7591612,2.7591612 0 1 1 -93.560652,41.640213 A 2.7591612,2.7591612 0 1 1 -88.04233,41.640213 z"
             sodipodi:ry="2.7591612"
             sodipodi:rx="2.7591612"
             sodipodi:cy="41.640213"
             sodipodi:cx="-90.801491"
             id="path3193"
             style="opacity:1;fill:#02aef0;fill-opacity:1;fill-rule:nonzero;stroke:none;stroke-width:0.1;stroke-linecap:round;stroke-linejoin:round;stroke-miterlimit:4;stroke-dasharray:none;stroke-opacity:1"
             sodipodi:type="arc" />
          <path
             sodipodi:type="arc"
             style="opacity:1;fill:#02aef0;fill-opacity:1;fill-rule:nonzero;stroke:none;stroke-width:0.1;stroke-linecap:round;stroke-linejoin:round;stroke-miterlimit:4;stroke-dasharray:none;stroke-opacity:1"
             id="path3195"
             sodipodi:cx="-90.801491"
             sodipodi:cy="41.640213"
             sodipodi:rx="2.7591612"
             sodipodi:ry="2.7591612"
             d="M -88.04233,41.640213 A 2.7591612,2.7591612 0 1 1 -93.560652,41.640213 A 2.7591612,2.7591612 0 1 1 -88.04233,41.640213 z"
             transform="translate(158.3034,51.095391)" />
        </g>
        <g
           style="fill:#02aef0;fill-opacity:1"
           transform="translate(14,0)"
           id="g3229">
          <path
             transform="translate(158.3034,37.095391)"
             d="M -88.04233,41.640213 A 2.7591612,2.7591612 0 1 1 -93.560652,41.640213 A 2.7591612,2.7591612 0 1 1 -88.04233,41.640213 z"
             sodipodi:ry="2.7591612"
             sodipodi:rx="2.7591612"
             sodipodi:cy="41.640213"
             sodipodi:cx="-90.801491"
             id="path3231"
             style="opacity:1;fill:#02aef0;fill-opacity:1;fill-rule:nonzero;stroke:none;stroke-width:0.1;stroke-linecap:round;stroke-linejoin:round;stroke-miterlimit:4;stroke-dasharray:none;stroke-opacity:1"
             sodipodi:type="arc" />
          <path
             sodipodi:type="arc"
             style="opacity:1;fill:#02aef0;fill-opacity:1;fill-rule:nonzero;stroke:none;stroke-width:0.1;stroke-linecap:round;stroke-linejoin:round;stroke-miterlimit:4;stroke-dasharray:none;stroke-opacity:1"
             id="path3233"
             sodipodi:cx="-90.801491"
             sodipodi:cy="41.640213"
             sodipodi:rx="2.7591612"
             sodipodi:ry="2.7591612"
             d="M -88.04233,41.640213 A 2.7591612,2.7591612 0 1 1 -93.560652,41.640213 A 2.7591612,2.7591612 0 1 1 -88.04233,41.640213 z"
             transform="translate(158.3034,44.095391)" />
          <path
             transform="translate(158.3034,51.095391)"
             d="M -88.04233,41.640213 A 2.7591612,2.7591612 0 1 1 -93.560652,41.640213 A 2.7591612,2.7591612 0 1 1 -88.04233,41.640213 z"
             sodipodi:ry="2.7591612"
             sodipodi:rx="2.7591612"
             sodipodi:cy="41.640213"
             sodipodi:cx="-90.801491"
             id="path3235"
             style="opacity:1;fill:#02aef0;fill-opacity:1;fill-rule:nonzero;stroke:none;stroke-width:0.1;stroke-linecap:round;stroke-linejoin:round;stroke-miterlimit:4;stroke-dasharray:none;stroke-opacity:1"
             sodipodi:type="arc" />
        </g>
        <g
           style="fill:#02aef0;fill-opacity:1"
           id="g3237"
           transform="translate(21,0)">
          <path
             sodipodi:type="arc"
             style="opacity:1;fill:#02aef0;fill-opacity:1;fill-rule:nonzero;stroke:none;stroke-width:0.1;stroke-linecap:round;stroke-linejoin:round;stroke-miterlimit:4;stroke-dasharray:none;stroke-opacity:1"
             id="path3239"
             sodipodi:cx="-90.801491"
             sodipodi:cy="41.640213"
             sodipodi:rx="2.7591612"
             sodipodi:ry="2.7591612"
             d="M -88.04233,41.640213 A 2.7591612,2.7591612 0 1 1 -93.560652,41.640213 A 2.7591612,2.7591612 0 1 1 -88.04233,41.640213 z"
             transform="translate(158.3034,37.095391)" />
          <path
             transform="translate(158.3034,44.095391)"
             d="M -88.04233,41.640213 A 2.7591612,2.7591612 0 1 1 -93.560652,41.640213 A 2.7591612,2.7591612 0 1 1 -88.04233,41.640213 z"
             sodipodi:ry="2.7591612"
             sodipodi:rx="2.7591612"
             sodipodi:cy="41.640213"
             sodipodi:cx="-90.801491"
             id="path3241"
             style="opacity:1;fill:#02aef0;fill-opacity:1;fill-rule:nonzero;stroke:none;stroke-width:0.1;stroke-linecap:round;stroke-linejoin:round;stroke-miterlimit:4;stroke-dasharray:none;stroke-opacity:1"
             sodipodi:type="arc" />
          <path
             sodipodi:type="arc"
             style="opacity:1;fill:#02aef0;fill-opacity:1;fill-rule:nonzero;stroke:none;stroke-width:0.1;stroke-linecap:round;stroke-linejoin:round;stroke-miterlimit:4;stroke-dasharray:none;stroke-opacity:1"
             id="path3243"
             sodipodi:cx="-90.801491"
             sodipodi:cy="41.640213"
             sodipodi:rx="2.7591612"
             sodipodi:ry="2.7591612"
             d="M -88.04233,41.640213 A 2.7591612,2.7591612 0 1 1 -93.560652,41.640213 A 2.7591612,2.7591612 0 1 1 -88.04233,41.640213 z"
             transform="translate(158.3034,51.095391)" />
        </g>
        <g
           style="fill:#02aef0;fill-opacity:1"
           transform="translate(28,0)"
           id="g3245">
          <path
             transform="translate(158.3034,37.095391)"
             d="M -88.04233,41.640213 A 2.7591612,2.7591612 0 1 1 -93.560652,41.640213 A 2.7591612,2.7591612 0 1 1 -88.04233,41.640213 z"
             sodipodi:ry="2.7591612"
             sodipodi:rx="2.7591612"
             sodipodi:cy="41.640213"
             sodipodi:cx="-90.801491"
             id="path3247"
             style="opacity:1;fill:#02aef0;fill-opacity:1;fill-rule:nonzero;stroke:none;stroke-width:0.1;stroke-linecap:round;stroke-linejoin:round;stroke-miterlimit:4;stroke-dasharray:none;stroke-opacity:1"
             sodipodi:type="arc" />
          <path
             sodipodi:type="arc"
             style="opacity:1;fill:#02aef0;fill-opacity:1;fill-rule:nonzero;stroke:none;stroke-width:0.1;stroke-linecap:round;stroke-linejoin:round;stroke-miterlimit:4;stroke-dasharray:none;stroke-opacity:1"
             id="path3249"
             sodipodi:cx="-90.801491"
             sodipodi:cy="41.640213"
             sodipodi:rx="2.7591612"
             sodipodi:ry="2.7591612"
             d="M -88.04233,41.640213 A 2.7591612,2.7591612 0 1 1 -93.560652,41.640213 A 2.7591612,2.7591612 0 1 1 -88.04233,41.640213 z"
             transform="translate(158.3034,44.095391)" />
          <path
             transform="translate(158.3034,51.095391)"
             d="M -88.04233,41.640213 A 2.7591612,2.7591612 0 1 1 -93.560652,41.640213 A 2.7591612,2.7591612 0 1 1 -88.04233,41.640213 z"
             sodipodi:ry="2.7591612"
             sodipodi:rx="2.7591612"
             sodipodi:cy="41.640213"
             sodipodi:cx="-90.801491"
             id="path3251"
             style="opacity:1;fill:#02aef0;fill-opacity:1;fill-rule:nonzero;stroke:none;stroke-width:0.1;stroke-linecap:round;stroke-linejoin:round;stroke-miterlimit:4;stroke-dasharray:none;stroke-opacity:1"
             sodipodi:type="arc" />
        </g>
        <path
           transform="translate(193.3034,37.095391)"
           d="M -88.04233,41.640213 A 2.7591612,2.7591612 0 1 1 -93.560652,41.640213 A 2.7591612,2.7591612 0 1 1 -88.04233,41.640213 z"
           sodipodi:ry="2.7591612"
           sodipodi:rx="2.7591612"
           sodipodi:cy="41.640213"
           sodipodi:cx="-90.801491"
           id="path3255"
           style="fill:#02aef0;fill-opacity:1;fill-rule:nonzero;stroke:none;stroke-width:0.1;stroke-linecap:round;stroke-linejoin:round;stroke-miterlimit:4;stroke-dasharray:none;stroke-opacity:1"
           sodipodi:type="arc" />
        <path
           sodipodi:type="arc"
           style="fill:#02aef0;fill-opacity:1;fill-rule:nonzero;stroke:none;stroke-width:0.1;stroke-linecap:round;stroke-linejoin:round;stroke-miterlimit:4;stroke-dasharray:none;stroke-opacity:1"
           id="path3257"
           sodipodi:cx="-90.801491"
           sodipodi:cy="41.640213"
           sodipodi:rx="2.7591612"
           sodipodi:ry="2.7591612"
           d="M -88.04233,41.640213 A 2.7591612,2.7591612 0 1 1 -93.560652,41.640213 A 2.7591612,2.7591612 0 1 1 -88.04233,41.640213 z"
           transform="translate(193.3034,44.095391)" />
        <path
           transform="translate(193.3034,51.095391)"
           d="M -88.04233,41.640213 A 2.7591612,2.7591612 0 1 1 -93.560652,41.640213 A 2.7591612,2.7591612 0 1 1 -88.04233,41.640213 z"
           sodipodi:ry="2.7591612"
           sodipodi:rx="2.7591612"
           sodipodi:cy="41.640213"
           sodipodi:cx="-90.801491"
           id="path3259"
           style="fill:#02aef0;fill-opacity:1;fill-rule:nonzero;stroke:none;stroke-width:0.1;stroke-linecap:round;stroke-linejoin:round;stroke-miterlimit:4;stroke-dasharray:none;stroke-opacity:1"
           sodipodi:type="arc" />
        <path
           sodipodi:type="arc"
           style="fill:#02aef0;fill-opacity:1;fill-rule:nonzero;stroke:none;stroke-width:0.1;stroke-linecap:round;stroke-linejoin:round;stroke-miterlimit:4;stroke-dasharray:none;stroke-opacity:1"
           id="path3264"
           sodipodi:cx="-90.801491"
           sodipodi:cy="41.640213"
           sodipodi:rx="2.7591612"
           sodipodi:ry="2.7591612"
           d="M -88.04233,41.640213 A 2.7591612,2.7591612 0 1 1 -93.560652,41.640213 A 2.7591612,2.7591612 0 1 1 -88.04233,41.640213 z"
           transform="translate(193.3034,30.095391)" />
        <path
           sodipodi:type="arc"
           style="fill:#02aef0;fill-opacity:1;fill-rule:nonzero;stroke:none;stroke-width:0.1;stroke-linecap:round;stroke-linejoin:round;stroke-miterlimit:4;stroke-dasharray:none;stroke-opacity:1"
           id="path3266"
           sodipodi:cx="-90.801491"
           sodipodi:cy="41.640213"
           sodipodi:rx="2.7591612"
           sodipodi:ry="2.7591612"
           d="M -88.04233,41.640213 A 2.7591612,2.7591612 0 1 1 -93.560652,41.640213 A 2.7591612,2.7591612 0 1 1 -88.04233,41.640213 z"
           transform="translate(193.3034,58.095391)" />
        <path
           sodipodi:type="arc"
           style="fill:#02aef0;fill-opacity:1;fill-rule:nonzero;stroke:none;stroke-width:0.1;stroke-linecap:round;stroke-linejoin:round;stroke-miterlimit:4;stroke-dasharray:none;stroke-opacity:1"
           id="path3268"
           sodipodi:cx="-90.801491"
           sodipodi:cy="41.640213"
           sodipodi:rx="2.7591612"
           sodipodi:ry="2.7591612"
           d="M -88.04233,41.640213 A 2.7591612,2.7591612 0 1 1 -93.560652,41.640213 A 2.7591612,2.7591612 0 1 1 -88.04233,41.640213 z"
           transform="translate(200.3034,37.095391)" />
        <path
           transform="translate(200.3034,44.095391)"
           d="M -88.04233,41.640213 A 2.7591612,2.7591612 0 1 1 -93.560652,41.640213 A 2.7591612,2.7591612 0 1 1 -88.04233,41.640213 z"
           sodipodi:ry="2.7591612"
           sodipodi:rx="2.7591612"
           sodipodi:cy="41.640213"
           sodipodi:cx="-90.801491"
           id="path3270"
           style="fill:#02aef0;fill-opacity:1;fill-rule:nonzero;stroke:none;stroke-width:0.1;stroke-linecap:round;stroke-linejoin:round;stroke-miterlimit:4;stroke-dasharray:none;stroke-opacity:1"
           sodipodi:type="arc" />
        <path
           sodipodi:type="arc"
           style="fill:#02aef0;fill-opacity:1;fill-rule:nonzero;stroke:none;stroke-width:0.1;stroke-linecap:round;stroke-linejoin:round;stroke-miterlimit:4;stroke-dasharray:none;stroke-opacity:1"
           id="path3272"
           sodipodi:cx="-90.801491"
           sodipodi:cy="41.640213"
           sodipodi:rx="2.7591612"
           sodipodi:ry="2.7591612"
           d="M -88.04233,41.640213 A 2.7591612,2.7591612 0 1 1 -93.560652,41.640213 A 2.7591612,2.7591612 0 1 1 -88.04233,41.640213 z"
           transform="translate(200.3034,51.095391)" />
        <path
           sodipodi:type="arc"
           style="fill:#02aef0;fill-opacity:1;fill-rule:nonzero;stroke:none;stroke-width:0.1;stroke-linecap:round;stroke-linejoin:round;stroke-miterlimit:4;stroke-dasharray:none;stroke-opacity:1"
           id="path3274"
           sodipodi:cx="-90.801491"
           sodipodi:cy="41.640213"
           sodipodi:rx="2.7591612"
           sodipodi:ry="2.7591612"
           d="M -88.04233,41.640213 A 2.7591612,2.7591612 0 1 1 -93.560652,41.640213 A 2.7591612,2.7591612 0 1 1 -88.04233,41.640213 z"
           transform="translate(207.3034,44.095391)" />
      </g>
      <path
         sodipodi:nodetypes="cccccc"
         id="path3307"
         d="M 80.26651,53.12522 C 79.001468,62.879831 69.321366,69.457225 69.397087,78.877392 C 69.318013,83.801642 73.50727,91.367603 81.771507,91.084591 C 86.162073,91.025861 89.708252,89.192739 91.948607,86.493291 C 96.08701,81.141784 94.792016,74.287746 92.133172,68.605335 C 89.10854,62.687649 83.849927,58.009851 80.26651,53.12522 z"
         style="fill:#000000;fill-rule:evenodd;stroke:none;stroke-width:1px;stroke-linecap:butt;stroke-linejoin:miter;stroke-opacity:1" />
      <path
         style="fill:#ffffff;fill-rule:evenodd;stroke:none;stroke-width:1px;stroke-linecap:butt;stroke-linejoin:miter;stroke-opacity:1"
         d="M 85.361653,65.834084 C 85.11484,67.737235 83.226226,69.020502 83.241,70.858402 C 83.225572,71.819136 84.042907,73.295275 85.655282,73.240059 C 86.511893,73.228601 87.203762,72.870954 87.640862,72.344284 C 88.448275,71.300191 88.162993,69.96295 87.644245,68.854296 C 87.054131,67.69974 86.060787,66.787089 85.361653,65.834084 z"
         id="path3309"
         sodipodi:nodetypes="cccccc" />
      <g
         id="g2703">
        <path
           style="font-size:40.1278038px;font-style:normal;font-variant:normal;font-weight:normal;font-stretch:normal;text-align:start;line-height:125%;writing-mode:lr-tb;text-anchor:start;fill:#000000;fill-opacity:1;stroke:none;stroke-width:1px;stroke-linecap:butt;stroke-linejoin:miter;stroke-opacity:1;font-family:FreeSans;-inkscape-font-specification:FreeSans"
           d="M 296.42921,66.296924 L 289.14879,87.708121 L 289.14879,89.030482 L 294.95856,89.030482 L 294.95856,94.060533 L 289.14879,94.060533 L 289.14879,99.083072 L 279.50383,99.083072 L 279.50383,94.060533 L 273.92067,94.060533 L 273.92067,89.030482 L 279.50383,89.030482 L 279.50383,87.708121 L 271.2028,66.296924 L 280.57833,66.296924 L 284.44511,78.022917 L 288.05368,66.296924"
           id="path3462"
           sodipodi:nodetypes="ccccccccccccccccc" />
        <path
           style="font-size:41.4851799px;font-style:normal;font-variant:normal;font-weight:normal;font-stretch:normal;text-align:start;line-height:125%;writing-mode:lr-tb;text-anchor:start;fill:#02aef0;fill-opacity:1;stroke:none;stroke-width:1px;stroke-linecap:butt;stroke-linejoin:miter;stroke-opacity:1;font-family:FreeSans;-inkscape-font-specification:FreeSans"
           d="M 143.87457,58.439362 L 154.6733,58.439362 L 154.6733,69.917326 L 161.86767,58.439362 L 173.69948,58.439362 L 164.68741,71.694506 L 172.21537,82.787598 L 175.36794,82.787598 L 175.36794,91.184536 L 166.58947,91.184536 L 166.58947,87.68222 L 162.77921,87.68222 L 154.6733,75.890927 L 154.6733,87.68222 L 143.87457,87.68222 L 143.87457,58.439362"
           id="path3414"
           sodipodi:nodetypes="cccccccccccccccc" />
        <path
           style="font-size:41.4851799px;font-style:normal;font-variant:normal;font-weight:normal;font-stretch:normal;text-align:start;line-height:125%;writing-mode:lr-tb;text-anchor:start;fill:#000000;fill-opacity:1;stroke:none;stroke-width:1px;stroke-linecap:butt;stroke-linejoin:miter;stroke-opacity:1;font-family:FreeSans;-inkscape-font-specification:FreeSans"
           d="M 228.9975,57.986286 L 243.24615,57.986286 L 248.74479,76.055026 L 254.21952,57.986286 L 268.42035,57.986286 L 268.42035,87.68222 L 259.57471,87.68222 L 259.57471,65.035526 L 252.71338,87.68222 L 244.70448,87.68222 L 237.86705,65.035526 L 237.86705,87.68222 L 228.9975,87.68222 L 228.9975,57.986286"
           id="path3406" />
        <path
           style="font-size:40.1278038px;font-style:normal;font-variant:normal;font-weight:normal;font-stretch:normal;text-align:start;line-height:125%;writing-mode:lr-tb;text-anchor:start;fill:#000000;fill-opacity:1;stroke:none;stroke-width:1px;stroke-linecap:butt;stroke-linejoin:miter;stroke-opacity:1;font-family:FreeSans;-inkscape-font-specification:FreeSans"
           d="M 299.75564,66.296924 L 308.65287,66.296924 L 308.65287,73.235269 L 314.48393,73.235269 L 314.48393,66.296924 L 323.38117,66.296924 L 323.38117,87.167691 L 314.48393,87.167691 L 314.48393,78.353518 L 308.65287,78.353518 L 308.65287,87.167691 L 299.75564,87.167691 L 299.75564,66.296924"
           id="path3460"
           sodipodi:nodetypes="ccccccccccccc" />
        <path
           style="font-size:40.1278038px;font-style:normal;font-variant:normal;font-weight:normal;font-stretch:normal;text-align:start;line-height:125%;writing-mode:lr-tb;text-anchor:start;fill:#000000;fill-opacity:1;stroke:none;stroke-width:1px;stroke-linecap:butt;stroke-linejoin:miter;stroke-opacity:1;font-family:FreeSans;-inkscape-font-specification:FreeSans"
           d="M 377.91823,66.296924 L 377.91823,87.167691 L 370.5427,87.167691 L 370.5427,76.061461 L 363.10536,87.167691 L 355.44139,87.167691 L 355.44139,66.296924 L 362.81693,66.296924 L 362.81693,77.403153 L 370.25427,66.296924 L 377.91823,66.296924"
           id="path3454" />
        <path
           style="font-size:40.1278038px;font-style:normal;font-variant:normal;font-weight:normal;font-stretch:normal;text-align:start;line-height:125%;writing-mode:lr-tb;text-anchor:start;fill:#000000;fill-opacity:1;stroke:none;stroke-width:1px;stroke-linecap:butt;stroke-linejoin:miter;stroke-opacity:1;font-family:FreeSans;-inkscape-font-specification:FreeSans"
           d="M 358.9503,56.659072 L 362.24433,56.659072 C 362.41324,57.631421 362.87394,58.374549 363.62643,58.888458 C 364.39426,59.402427 365.41549,59.659397 366.69011,59.659367 C 367.96471,59.659397 368.97825,59.402427 369.73076,58.888458 C 370.49857,58.374549 370.96696,57.631421 371.1359,56.659072 L 374.42993,56.659072 C 374.33776,58.6593 373.62367,60.194171 372.28766,61.263692 C 370.9516,62.319377 369.08575,62.847207 366.69011,62.84718 C 364.29443,62.847207 362.42859,62.319377 361.09257,61.263692 C 359.75652,60.194171 359.04242,58.6593 358.9503,56.659072"
           id="path3452" />
        <path
           style="font-size:40.1278038px;font-style:normal;font-variant:normal;font-weight:normal;font-stretch:normal;text-align:start;line-height:125%;writing-mode:lr-tb;text-anchor:start;fill:#02aef0;fill-opacity:1;stroke:none;stroke-width:1px;stroke-linecap:butt;stroke-linejoin:miter;stroke-opacity:1;font-family:FreeSans;-inkscape-font-specification:FreeSans"
           d="M 383.35556,87.167691 L 383.35556,58.346213 L 407.21433,58.346213 L 407.21433,65.768885 L 394.28735,65.768885 L 394.28735,87.167691 L 383.35556,87.167691"
           id="path3450"
           sodipodi:nodetypes="ccccccc" />
        <path
           style="font-size:40.1278038px;font-style:normal;font-variant:normal;font-weight:normal;font-stretch:normal;text-align:start;line-height:125%;writing-mode:lr-tb;text-anchor:start;fill:#02aef0;fill-opacity:1;stroke:none;stroke-width:1px;stroke-linecap:butt;stroke-linejoin:miter;stroke-opacity:1;font-family:FreeSans;-inkscape-font-specification:FreeSans"
           d="M 440.79409,74.16073 C 442.06312,74.164523 443.32228,74.274711 444.49646,74.176512 C 448.98824,73.785582 448.92314,70.314636 444.39072,70.030956 C 442.12515,70.03434 439.10078,70.852926 437.57523,71.514615 L 437.57523,66.688251 C 440.73413,66.096119 444.51949,65.652653 447.85725,65.728174 C 452.03018,65.928055 457.6605,66.126942 458.12201,71.272366 C 458.12199,73.732148 456.61805,75.278819 453.61017,75.912385 C 457.00261,76.670202 458.69885,78.446701 458.69887,81.241884 C 458.48605,86.726926 452.59541,87.256921 448.26136,87.683731 C 444.44831,87.963504 441.15469,87.565417 437.52453,86.664556 L 437.52453,80.521402 C 439.99487,81.390314 442.66652,82.644522 445.38151,82.214997 C 449.71219,81.407207 449.45569,78.805584 445.17331,78.211119 C 443.71601,78.097819 442.10199,78.27898 440.79409,78.27898 L 440.79409,74.16073"
           id="text3439"
           sodipodi:nodetypes="cccccccccccccccc" />
        <path
           id="path3477"
           d="M 421.75,65.78125 C 418.53711,65.748559 415.3605,66.221921 412.21875,66.84375 L 412.21875,71.9375 C 414.77933,70.642477 417.58396,70.328656 420.40625,70.21875 C 422.6964,70.036054 426.08889,70.873059 426.09375,73.8125 L 421.75,73.8125 C 417.76692,73.812514 414.83668,74.38834 412.96875,75.53125 C 411.11456,76.674183 410.18749,78.458909 410.1875,80.90625 C 410.1875,82.918792 410.95415,84.545352 412.4375,85.8125 C 413.93458,87.067231 415.86016,87.718752 418.25,87.71875 C 420.02176,87.718749 421.51386,87.415207 422.75,86.84375 C 423.9861,86.259866 425.10485,85.329652 426.09375,84.0625 L 426.09375,87.15625 L 434.53125,87.15625 L 434.53125,75.25 C 434.53122,71.908207 433.60417,69.509614 431.75,68.03125 C 429.90953,66.540501 425.91159,65.781272 421.75,65.78125 z M 426.09375,77.78125 C 426.2513,79.426449 425.35145,80.438277 424.39022,81.714537 C 422.07486,83.141634 420.02117,82.589199 419.78031,80.265217 C 420.08166,77.535011 422.66193,77.455312 426.09375,77.78125 z"
           style="font-size:40.1278038px;font-style:normal;font-variant:normal;font-weight:normal;font-stretch:normal;text-align:start;line-height:125%;writing-mode:lr-tb;text-anchor:start;fill:#02aef0;fill-opacity:1;stroke:none;stroke-width:1px;stroke-linecap:butt;stroke-linejoin:miter;stroke-opacity:1;font-family:FreeSans;-inkscape-font-specification:FreeSans"
           sodipodi:nodetypes="cccccccscsccccccccccc" />
        <path
           sodipodi:nodetypes="cccccccccccccccc"
           id="path3479"
           d="M 207.79409,74.16073 C 209.06312,74.164523 210.32228,74.274711 211.49646,74.176512 C 215.98824,73.785582 215.92314,70.314636 211.39072,70.030956 C 209.12515,70.03434 206.10078,70.852926 204.57523,71.514615 L 204.57523,66.688251 C 207.73413,66.096119 211.51949,65.652653 214.85725,65.728174 C 219.03018,65.928055 224.6605,66.126942 225.12201,71.272366 C 225.12199,73.732148 223.61805,75.278819 220.61017,75.912385 C 224.00261,76.670202 225.69885,78.446701 225.69887,81.241884 C 225.48605,86.726926 219.59541,87.256921 215.26136,87.683731 C 211.44831,87.963504 208.15469,87.565417 204.52453,86.664556 L 204.52453,80.521402 C 206.99487,81.390314 209.66652,82.644522 212.38151,82.214997 C 216.71219,81.407207 216.45569,78.805584 212.17331,78.211119 C 210.71601,78.097819 209.10199,78.27898 207.79409,78.27898 L 207.79409,74.16073"
           style="font-size:40.1278038px;font-style:normal;font-variant:normal;font-weight:normal;font-stretch:normal;text-align:start;line-height:125%;writing-mode:lr-tb;text-anchor:start;fill:#02aef0;fill-opacity:1;stroke:none;stroke-width:1px;stroke-linecap:butt;stroke-linejoin:miter;stroke-opacity:1;font-family:FreeSans;-inkscape-font-specification:FreeSans" />
        <path
           sodipodi:nodetypes="cccccccscsccccccccccc"
           style="font-size:40.1278038px;font-style:normal;font-variant:normal;font-weight:normal;font-stretch:normal;text-align:start;line-height:125%;writing-mode:lr-tb;text-anchor:start;fill:#02aef0;fill-opacity:1;stroke:none;stroke-width:1px;stroke-linecap:butt;stroke-linejoin:miter;stroke-opacity:1;font-family:FreeSans;-inkscape-font-specification:FreeSans"
           d="M 188.75,65.78125 C 185.53711,65.748559 182.3605,66.221921 179.21875,66.84375 L 179.21875,71.9375 C 181.77933,70.642477 184.58396,70.328656 187.40625,70.21875 C 189.6964,70.036054 193.08889,70.873059 193.09375,73.8125 L 188.75,73.8125 C 184.76692,73.812514 181.83668,74.38834 179.96875,75.53125 C 178.11456,76.674183 177.18749,78.458909 177.1875,80.90625 C 177.1875,82.918792 177.95415,84.545352 179.4375,85.8125 C 180.93458,87.067231 182.86016,87.718752 185.25,87.71875 C 187.02176,87.718749 188.51386,87.415207 189.75,86.84375 C 190.9861,86.259866 192.10485,85.329652 193.09375,84.0625 L 193.09375,87.15625 L 201.53125,87.15625 L 201.53125,75.25 C 201.53122,71.908207 200.60417,69.509614 198.75,68.03125 C 196.90953,66.540501 192.91159,65.781272 188.75,65.78125 z M 193.09375,77.78125 C 193.2513,79.426449 192.35145,80.438277 191.39022,81.714537 C 189.07486,83.141634 187.02117,82.589199 186.78031,80.265217 C 187.08166,77.535011 189.66193,77.455312 193.09375,77.78125 z"
           id="path3481" />
        <path
           style="font-size:9.31718731px;font-style:normal;font-variant:normal;font-weight:normal;font-stretch:normal;text-align:start;line-height:125%;writing-mode:lr-tb;text-anchor:start;fill:#000000;fill-opacity:1;stroke:none;stroke-width:1px;stroke-linecap:butt;stroke-linejoin:miter;stroke-opacity:1;font-family:FreeSans;-inkscape-font-specification:FreeSans"
           d="M 142.97289,93.887895 L 144.92913,93.887895 L 147.39946,98.546488 L 147.39946,93.887895 L 149.06,93.887895 L 149.06,100.68016 L 147.10375,100.68016 L 144.63342,96.021567 L 144.63342,100.68016 L 142.97289,100.68016 L 142.97289,93.887895 M 155.90144,99.442722 L 153.16269,99.442722 L 152.7305,100.68016 L 150.96988,100.68016 L 153.4857,93.887895 L 155.57388,93.887895 L 158.0897,100.68016 L 156.32908,100.68016 L 155.90144,99.442722 M 153.59943,98.182536 L 155.46014,98.182536 L 154.53206,95.480187 L 153.59943,98.182536 M 159.07423,93.859236 L 165.33422,93.859236 L 165.33422,95.183113 L 163.08226,95.183113 L 163.08226,100.6515 L 161.33074,100.6515 L 161.33074,95.183113 L 159.07423,95.183113 L 159.07423,93.859236 M 167.02776,93.859236 L 168.77928,93.859236 L 168.77928,100.6515 L 167.02776,100.6515 L 167.02776,93.859236 M 174.29987,95.12852 C 173.76607,95.128526 173.35207,95.325667 173.05788,95.719943 C 172.76368,96.11423 172.61658,96.669257 172.61659,97.385027 C 172.61658,98.09777 172.76368,98.651281 173.05788,99.045561 C 173.35207,99.439844 173.76607,99.636985 174.29987,99.636984 C 174.83669,99.636985 175.2522,99.439844 175.5464,99.045561 C 175.84059,98.651281 175.98769,98.09777 175.9877,97.385027 C 175.98769,96.669257 175.84059,96.11423 175.5464,95.719943 C 175.2522,95.325667 174.83669,95.128526 174.29987,95.12852 M 174.29987,93.859236 C 175.39172,93.859242 176.24701,94.171635 176.86573,94.796414 C 177.48444,95.421204 177.7938,96.284074 177.79381,97.385027 C 177.7938,98.482953 177.48444,99.344306 176.86573,99.96909 C 176.24701,100.59388 175.39172,100.90627 174.29987,100.90627 C 173.21104,100.90627 172.35575,100.59388 171.734,99.96909 C 171.11528,99.344306 170.80592,98.482953 170.80592,97.385027 C 170.80592,96.284074 171.11528,95.421204 171.734,94.796414 C 172.35575,94.171635 173.21104,93.859242 174.29987,93.859236 M 180.35182,93.859236 L 182.30807,93.859236 L 184.77839,98.517829 L 184.77839,93.859236 L 186.43893,93.859236 L 186.43893,100.6515 L 184.48268,100.6515 L 182.01235,95.992908 L 182.01235,100.6515 L 180.35182,100.6515 L 180.35182,93.859236 M 193.22177,99.414063 L 190.48302,99.414063 L 190.05083,100.6515 L 188.29021,100.6515 L 190.80603,93.859236 L 192.89421,93.859236 L 195.41003,100.6515 L 193.64941,100.6515 L 193.22177,99.414063 M 190.91977,98.153877 L 192.78047,98.153877 L 191.85239,95.451528 L 190.91977,98.153877 M 197.34676,93.859236 L 199.09828,93.859236 L 199.09828,99.327624 L 202.17368,99.327624 L 202.17368,100.6515 L 197.34676,100.6515 L 197.34676,93.859236 M 218.05023,100.30711 C 217.72873,100.47392 217.39359,100.59979 217.04481,100.68471 C 216.69602,100.76963 216.33206,100.81209 215.95295,100.81209 C 214.82166,100.81209 213.92543,100.49667 213.26425,99.865817 C 212.60307,99.231934 212.27248,98.373613 212.27248,97.290852 C 212.27248,96.205064 212.60307,95.346743 213.26425,94.715887 C 213.92543,94.082009 214.82166,93.765067 215.95295,93.765061 C 216.33206,93.765067 216.69602,93.807529 217.04481,93.892444 C 217.39359,93.977373 217.72873,94.10324 218.05023,94.270045 L 218.05023,95.675812 C 217.7257,95.454413 217.40572,95.292151 217.0903,95.189025 C 216.77487,95.085911 216.44277,95.034351 216.09398,95.034345 C 215.46919,95.034351 214.97786,95.234525 214.61998,95.634867 C 214.26209,96.03522 214.08314,96.587214 214.08315,97.290852 C 214.08314,97.991463 214.26209,98.541941 214.61998,98.942287 C 214.97786,99.342636 215.46919,99.54281 216.09398,99.542809 C 216.44277,99.54281 216.77487,99.49125 217.0903,99.388129 C 217.40572,99.28501 217.7257,99.122748 218.05023,98.901342 L 218.05023,100.30711 M 223.21235,95.12852 C 222.67855,95.128526 222.26456,95.325667 221.97037,95.719943 C 221.67617,96.11423 221.52907,96.669257 221.52907,97.385027 C 221.52907,98.09777 221.67617,98.651281 221.97037,99.045561 C 222.26456,99.439844 222.67855,99.636985 223.21235,99.636984 C 223.74918,99.636985 224.16469,99.439844 224.45889,99.045561 C 224.75308,98.651281 224.90018,98.09777 224.90018,97.385027 C 224.90018,96.669257 224.75308,96.11423 224.45889,95.719943 C 224.16469,95.325667 223.74918,95.128526 223.21235,95.12852 M 223.21235,93.859236 C 224.30421,93.859242 225.15949,94.171635 225.77822,94.796414 C 226.39693,95.421204 226.70629,96.284074 226.7063,97.385027 C 226.70629,98.482953 226.39693,99.344306 225.77822,99.96909 C 225.15949,100.59388 224.30421,100.90627 223.21235,100.90627 C 222.12353,100.90627 221.26824,100.59388 220.64649,99.96909 C 220.02777,99.344306 219.71841,98.482953 219.71841,97.385027 C 219.71841,96.284074 220.02777,95.421204 220.64649,94.796414 C 221.26824,94.171635 222.12353,93.859242 223.21235,93.859236 M 229.07518,93.859236 L 231.30439,93.859236 L 232.85119,97.494212 L 234.40708,93.859236 L 236.63174,93.859236 L 236.63174,100.6515 L 234.97576,100.6515 L 234.97576,95.683548 L 233.41076,99.345821 L 232.30071,99.345821 L 230.73571,95.683548 L 230.73571,100.6515 L 229.07518,100.6515 L 229.07518,93.859236 M 239.05869,93.859236 L 241.96576,93.859236 C 242.83014,93.859242 243.49284,94.051834 243.95385,94.43701 C 244.41789,94.819166 244.64991,95.365095 244.64991,96.074797 C 244.64991,96.787542 244.41789,97.336503 243.95385,97.721683 C 243.49284,98.103836 242.83014,98.294911 241.96576,98.294908 L 240.81021,98.294908 L 240.81021,100.6515 L 239.05869,100.6515 L 239.05869,93.859236 M 240.81021,95.12852 L 240.81021,97.025623 L 241.77924,97.025623 C 242.11892,97.025627 242.38127,96.943738 242.56628,96.779955 C 242.75129,96.613148 242.84379,96.378095 242.8438,96.074797 C 242.84379,95.771508 242.75129,95.537972 242.56628,95.374188 C 242.38127,95.210415 242.11892,95.128526 241.77924,95.12852 L 240.81021,95.12852 M 250.79339,99.442722 L 248.05465,99.442722 L 247.62245,100.68016 L 245.86183,100.68016 L 248.37765,93.887895 L 250.46583,93.887895 L 252.98165,100.68016 L 251.22103,100.68016 L 250.79339,99.442722 M 248.49139,98.182536 L 250.3521,98.182536 L 249.42402,95.480187 L 248.49139,98.182536 M 254.87789,93.887895 L 256.83413,93.887895 L 259.30446,98.546488 L 259.30446,93.887895 L 260.96499,93.887895 L 260.96499,100.68016 L 259.00875,100.68016 L 256.53842,96.021567 L 256.53842,100.68016 L 254.87789,100.68016 L 254.87789,93.887895 M 262.7384,93.887895 L 264.6537,93.887895 L 266.2005,96.30818 L 267.74729,93.887895 L 269.66714,93.887895 L 267.07853,97.818583 L 267.07853,100.68016 L 265.32701,100.68016 L 265.32701,97.818583 L 262.7384,93.887895"
           id="text3483"
           sodipodi:nodetypes="cccccccccccccccccccccccccccccccccccccccsssssssccssssssscccccccccccccccccccccccccccccccccsssssssccssssssscccsssssssccssssssscccccccccccccccccsssccccccccssscccccccccccccccccccccccccccccccccccc" />
        <path
           style="font-size:9.31718731px;font-style:normal;font-variant:normal;font-weight:normal;font-stretch:normal;text-align:start;line-height:125%;writing-mode:lr-tb;text-anchor:start;fill:#000000;fill-opacity:1;stroke:none;stroke-width:1px;stroke-linecap:butt;stroke-linejoin:miter;stroke-opacity:1;font-family:FreeSans;-inkscape-font-specification:FreeSans"
           d="M 307.44141,93.859236 L 304.8528,97.789925 L 304.8528,98.663411 L 305.86277,98.663411 L 305.86277,99.536897 L 304.8528,99.536897 L 304.8528,100.6515 L 303.10128,100.6515 L 303.10128,99.536897 L 302.09586,99.536897 L 302.09586,98.663411 L 303.10128,98.663411 L 303.10128,97.789925 L 300.51266,93.859236 L 302.42796,93.859236 L 303.97476,96.279521 L 305.52156,93.859236 L 307.44141,93.859236 M 309.41768,100.6515 L 309.41768,99.327625 C 310.18804,99.242704 310.65056,98.950026 310.80525,98.449589 C 310.95992,97.946124 311.03726,96.843652 311.03727,95.142169 L 311.03727,93.859236 L 315.87329,93.859236 L 315.87329,100.6515 L 314.12176,100.6515 L 314.12176,95.183114 L 312.78879,95.183114 L 312.78879,95.59711 C 312.78878,97.259164 312.64169,98.475371 312.3475,99.245735 C 312.0533,100.01307 311.07669,100.48166 309.41768,100.6515 M 327.37725,93.859236 L 333.63724,93.859236 L 333.63724,95.183114 L 331.38528,95.183114 L 331.38528,100.6515 L 329.63376,100.6515 L 329.63376,95.183114 L 327.37725,95.183114 L 327.37725,93.859236 M 338.65548,99.459558 C 339.02246,99.459559 339.28784,99.391318 339.45163,99.254834 C 339.62753,99.106222 339.71549,98.890883 339.71549,98.608818 C 339.71549,98.332823 339.62753,98.122034 339.45163,97.976451 C 339.29088,97.839971 339.02549,97.77173 338.65548,97.771727 L 337.62731,97.771727 L 337.62731,99.459558 L 338.65548,99.459558 M 341.46701,98.554225 C 341.46701,99.276066 341.2456,99.797731 340.8028,100.11922 C 340.31449,100.47408 339.64118,100.6515 338.78286,100.6515 L 335.87579,100.6515 L 335.87579,93.859236 L 337.62731,93.859236 L 337.62731,96.44785 L 338.78286,96.44785 C 339.64118,96.447854 340.31449,96.62528 340.8028,96.98013 C 341.2456,97.301625 341.46701,97.826323 341.46701,98.554225 M 342.06754,93.859236 L 343.81906,93.859236 L 343.81906,100.6515 L 342.06754,100.6515 L 342.06754,93.859236 M 347.57017,93.859236 L 349.32169,93.859236 L 349.32169,96.661672 L 352.06044,93.859236 L 354.04398,93.859236 L 351.34618,96.611628 L 353.26148,99.327625 L 354.19411,99.327625 L 354.19411,100.6515 L 354.19411,102.11186 L 352.44714,102.11186 L 352.44714,100.6515 L 352.26516,100.6515 L 350.22248,97.758079 L 349.32169,98.677059 L 349.32169,100.6515 L 347.57017,100.6515 L 347.57017,93.859236 M 361.26066,93.859236 L 363.01218,93.859236 L 363.01218,96.661672 L 365.75092,93.859236 L 367.73447,93.859236 L 365.03667,96.611628 L 367.8846,100.6515 L 365.95565,100.6515 L 363.91296,97.758079 L 363.01218,98.677059 L 363.01218,100.6515 L 361.26066,100.6515 L 361.26066,93.859236 M 374.36643,95.128521 C 373.83263,95.128527 373.41864,95.325668 373.12445,95.719944 C 372.83025,96.114231 372.68315,96.669258 372.68315,97.385028 C 372.68315,98.097771 372.83025,98.651281 373.12445,99.045561 C 373.41864,99.439845 373.83263,99.636986 374.36643,99.636984 C 374.90326,99.636986 375.31877,99.439845 375.61297,99.045561 C 375.90716,98.651281 376.05426,98.097771 376.05426,97.385028 C 376.05426,96.669258 375.90716,96.114231 375.61297,95.719944 C 375.31877,95.325668 374.90326,95.128527 374.36643,95.128521 M 374.36643,93.859236 C 375.45829,93.859243 376.31357,94.171636 376.9323,94.796414 C 377.55101,95.421205 377.86037,96.284075 377.86038,97.385028 C 377.86037,98.482954 377.55101,99.344307 376.9323,99.969091 C 376.31357,100.59388 375.45829,100.90627 374.36643,100.90627 C 373.27761,100.90627 372.42232,100.59388 371.80057,99.969091 C 371.18185,99.344307 370.87249,98.482954 370.87249,97.385028 C 370.87249,96.284075 371.18185,95.421205 371.80057,94.796414 C 372.42232,94.171636 373.27761,93.859243 374.36643,93.859236 M 382.05345,93.859236 L 384.28266,93.859236 L 385.82946,97.494213 L 387.38535,93.859236 L 389.61001,93.859236 L 389.61001,100.6515 L 387.95403,100.6515 L 387.95403,95.683549 L 386.38903,99.345822 L 385.27898,99.345822 L 383.71398,95.683549 L 383.71398,100.6515 L 382.05345,100.6515 L 382.05345,93.859236 M 399.50233,93.859236 L 399.50233,100.6515 L 397.75081,100.6515 L 397.75081,95.183114 L 395.16674,95.183114 L 395.16674,100.6515 L 393.41522,100.6515 L 393.41522,93.859236 L 399.50233,93.859236 M 407.62293,99.414063 L 404.88419,99.414063 L 404.45199,100.6515 L 402.69137,100.6515 L 405.2072,93.859236 L 407.29537,93.859236 L 409.8112,100.6515 L 408.05058,100.6515 L 407.62293,99.414063 M 405.32093,98.153877 L 407.18164,98.153877 L 406.25356,95.451529 L 405.32093,98.153877 M 413.08571,93.859236 L 414.83723,93.859236 L 414.83723,96.44785 L 417.42129,96.44785 L 417.42129,93.859236 L 419.17281,93.859236 L 419.17281,100.6515 L 417.42129,100.6515 L 417.42129,97.771727 L 414.83723,97.771727 L 414.83723,100.6515 L 413.08571,100.6515 L 413.08571,93.859236 M 429.06057,93.859236 L 429.06057,100.6515 L 427.40004,100.6515 L 427.40004,95.992909 L 424.92971,100.6515 L 422.97346,100.6515 L 422.97346,93.859236 L 424.634,93.859236 L 424.634,98.51783 L 427.10433,93.859236 L 429.06057,93.859236 M 434.6719,95.992909 C 434.6719,96.305306 434.75076,96.529743 434.90847,96.666221 C 435.06922,96.802707 435.33308,96.870948 435.70007,96.870944 L 436.57356,96.870944 L 436.57356,95.128521 L 435.70007,95.128521 C 435.33308,95.128527 435.06922,95.195251 434.90847,95.328695 C 434.75076,95.46215 434.6719,95.683554 434.6719,95.992909 M 432.60192,100.6515 L 434.2943,97.767178 C 434.0638,97.636764 433.77718,97.409294 433.43446,97.084767 C 433.09174,96.757213 432.92038,96.367481 432.92038,95.915569 C 432.92038,95.236196 433.12814,94.72363 433.54365,94.377869 C 433.96219,94.032121 434.61882,93.859243 435.51354,93.859236 L 438.32508,93.859236 L 438.32508,100.6515 L 436.57356,100.6515 L 436.57356,98.081087 L 435.97758,98.081087 L 434.46718,100.6515 L 432.60192,100.6515 M 447.25085,100.2739 C 446.92935,100.44071 446.59421,100.56658 446.24543,100.6515 C 445.89663,100.73642 445.53268,100.77888 445.15357,100.77888 C 444.02228,100.77888 443.12605,100.46346 442.46487,99.832608 C 441.80369,99.198726 441.4731,98.340405 441.4731,97.257644 C 441.4731,96.171856 441.80369,95.313535 442.46487,94.682679 C 443.12605,94.048801 444.02228,93.731859 445.15357,93.731852 C 445.53268,93.731859 445.89663,93.77432 446.24543,93.859236 C 446.59421,93.944165 446.92935,94.070032 447.25085,94.236837 L 447.25085,95.642604 C 446.92632,95.421204 446.60634,95.258942 446.29092,95.155817 C 445.97549,95.052703 445.64338,95.001143 445.2946,95.001137 C 444.66981,95.001143 444.17848,95.201317 443.82059,95.601659 C 443.4627,96.002012 443.28376,96.554006 443.28376,97.257644 C 443.28376,97.958255 443.4627,98.508733 443.82059,98.909079 C 444.17848,99.309428 444.66981,99.509602 445.2946,99.5096 C 445.64338,99.509602 445.97549,99.458042 446.29092,99.354921 C 446.60634,99.251802 446.92632,99.08954 447.25085,98.868134 L 447.25085,100.2739 M 453.1214,99.459558 C 453.48839,99.459559 453.75377,99.391318 453.91755,99.254834 C 454.09346,99.106222 454.18141,98.890883 454.18142,98.608818 C 454.18141,98.332823 454.09346,98.122034 453.91755,97.976451 C 453.7568,97.839971 453.49142,97.77173 453.1214,97.771727 L 452.09324,97.771727 L 452.09324,99.459558 L 453.1214,99.459558 M 455.93294,98.554225 C 455.93293,99.276066 455.71153,99.797731 455.26872,100.11922 C 454.78042,100.47408 454.1071,100.6515 453.24879,100.6515 L 450.34172,100.6515 L 450.34172,93.859236 L 452.09324,93.859236 L 452.09324,96.44785 L 453.24879,96.44785 C 454.1071,96.447854 454.78042,96.62528 455.26872,96.98013 C 455.71153,97.301625 455.93293,97.826323 455.93294,98.554225 M 456.53346,93.859236 L 458.28498,93.859236 L 458.28498,100.6515 L 456.53346,100.6515 L 456.53346,93.859236"
           id="text3487"
           sodipodi:nodetypes="ccccccccccccccccccccsccccccccscccccccccccssscccccsccccccsccccccccccccccccccccccccccccccccccccccsssssssccsssssssccccccccccccccccccccccccccccccccccccccccccccccccccccccccccccccsccccscccssscccccccccsssssssccssssssscccssscccccsccccccscccccc" />
        <path
           sodipodi:nodetypes="ccccccccc"
           id="path3508"
           d="M 319.00377,93.859236 L 325.26376,93.859236 L 325.26376,95.183114 L 323.0118,95.183114 L 323.0118,100.6515 L 321.26028,100.6515 L 321.26028,95.183114 L 319.00377,95.183114 L 319.00377,93.859236"
           style="font-size:9.31718731px;font-style:normal;font-variant:normal;font-weight:normal;font-stretch:normal;text-align:start;line-height:125%;writing-mode:lr-tb;text-anchor:start;fill:#000000;fill-opacity:1;stroke:none;stroke-width:1px;stroke-linecap:butt;stroke-linejoin:miter;stroke-opacity:1;font-family:FreeSans;-inkscape-font-specification:FreeSans" />
        <path
           sodipodi:nodetypes="cccccccscsccccccccccc"
           style="font-size:40.12780380000000235px;font-style:normal;font-variant:normal;font-weight:normal;font-stretch:normal;text-align:start;line-height:125%;writing-mode:lr-tb;text-anchor:start;fill:#000000;fill-opacity:1;stroke:none;stroke-width:1px;stroke-linecap:butt;stroke-linejoin:miter;stroke-opacity:1;font-family:FreeSans;-inkscape-font-specification:FreeSans"
           d="M 338.75,65.78125 C 335.53711,65.748559 332.3605,66.221921 329.21875,66.84375 L 329.21875,71.9375 C 331.77933,70.642477 334.58396,70.328656 337.40625,70.21875 C 339.6964,70.036054 343.08889,70.873059 343.09375,73.8125 L 338.75,73.8125 C 334.76692,73.812514 331.83668,74.38834 329.96875,75.53125 C 328.11456,76.674183 327.18749,78.458909 327.1875,80.90625 C 327.1875,82.918792 327.95415,84.545352 329.4375,85.8125 C 330.93458,87.067231 332.86016,87.718752 335.25,87.71875 C 337.02176,87.718749 338.51386,87.415207 339.75,86.84375 C 340.9861,86.259866 342.10485,85.329652 343.09375,84.0625 L 343.09375,87.15625 L 351.53125,87.15625 L 351.53125,75.25 C 351.53122,71.908207 350.60417,69.509614 348.75,68.03125 C 346.90953,66.540501 342.91159,65.781272 338.75,65.78125 z M 343.09375,77.78125 C 343.2513,79.426449 342.35145,80.438277 341.39022,81.714537 C 339.07486,83.141634 337.02117,82.589199 336.78031,80.265217 C 337.08166,77.535011 339.66193,77.455312 343.09375,77.78125 z"
           id="path2701" />
      </g>
    </g>
  </g>
</svg>
